<svg width="182" height="29" viewBox="0 0 182 29" fill="none" xmlns="http://www.w3.org/2000/svg">
<g clip-path="url(#clip0_4002_286)">
<path fill-rule="evenodd" clip-rule="evenodd" d="M48.9553 0.00292969C37.5552 0.00292969 32.4738 6.9239 32.4738 14.5504C32.4738 22.1601 38.3306 28.9971 48.9553 28.9971C60.207 28.9971 65.5689 22.1601 65.5689 14.5504C65.5689 6.9239 60.207 0.00292969 48.9553 0.00292969ZM53.8883 16.2135C54.0862 21.1522 52.8324 26.1413 50.3082 26.7125C47.6355 26.3429 44.7978 21.1018 44.5009 13.1225C44.3194 8.48616 45.1113 3.32903 47.8995 2.27072C50.2422 2.70748 53.5748 7.62944 53.8883 16.2135ZM83.4028 0.674863H71.8377V28.3251H91.2064V25.1334L83.4028 25.1502V0.674863ZM108.067 21.1522H99.3726C99.3726 21.1522 98.0363 27.3172 97.7888 28.3251H94.4232L100.593 0.674863H115.937L122.024 28.3251H109.667L108.067 21.1522ZM107.44 18.2965L104.322 4.32013H103.134L100.016 18.2965H107.44ZM166.239 0.674879H151.655V28.3252H163.22V18.5317L164.771 18.6828L169.044 28.3252H181.5L175.478 18.9516L174.999 18.0781C178.2 16.5494 180.18 13.8449 180.279 9.2253C180.345 6.90711 179.652 4.52173 177.953 2.92587C175.343 0.469135 171.458 0.56281 168.01 0.645933C167.403 0.660569 166.81 0.674879 166.239 0.674879ZM166.371 16.5662C166.371 16.5662 163.863 16.3982 163.236 16.2807V2.90908C168.747 2.90908 168.747 7.56225 168.747 9.2757C168.747 13.4249 166.371 16.5662 166.371 16.5662ZM141.096 28.3251H129.531V0.674863H141.096V28.3251ZM28.6622 8.99011C28.6622 1.27961 22.0134 0.674863 15.1998 0.674863H0.5V28.3251H12.0816V20.581C13.187 20.8162 14.6223 20.9506 16.1236 20.9506C22.3269 20.9506 28.6622 18.8004 28.6622 8.99011ZM15.1998 18.3133C15.1998 18.3133 12.7745 18.1789 12.0816 18.0277V2.90906C17.5425 2.90906 17.5425 8.16698 17.5425 10.1156C17.5425 15.3399 15.1998 18.3133 15.1998 18.3133Z" fill="white"/>
</g>
<defs>
<clipPath id="clip0_4002_286">
<rect width="181" height="29" fill="white" transform="translate(0.5)"/>
</clipPath>
</defs>
</svg>
