<svg xmlns="http://www.w3.org/2000/svg" xmlns:xlink="http://www.w3.org/1999/xlink"><defs><clipPath id="a"><path fill="#fff" transform="translate(.5)" d="M0 0h181v29H0z"/></clipPath><clipPath id="a"><path fill="#fff" transform="translate(0 13)" d="M0 0h159v22H0z"/></clipPath><clipPath id="a"><path fill="#fff" transform="translate(0 12)" d="M0 0h125v24H0z"/></clipPath><clipPath id="a"><path fill="#fff" transform="translate(0 7)" d="M0 0h104v34H0z"/></clipPath><clipPath id="a"><path fill="#fff" transform="translate(0 13)" d="M0 0h163v22H0z"/></clipPath><clipPath id="a"><path fill="#fff" d="M0 0h201.6v32H0z"/></clipPath><clipPath id="a"><path fill="#fff" transform="translate(0 11)" d="M0 0h113v26H0z"/></clipPath></defs><symbol id="Icons social media (1)"><g fill="none"><path d="M1.471 10.71s10.615-4.39 14.296-5.936c1.412-.619 6.197-2.597 6.197-2.597s2.21-.866 2.025 1.236c-.061.866-.552 3.896-1.043 7.173-.736 4.638-1.534 9.709-1.534 9.709s-.123 1.422-1.166 1.67c-1.043.247-2.76-.866-3.067-1.114-.246-.185-4.602-2.968-6.197-4.328-.43-.371-.92-1.113.06-1.979 2.21-2.04 4.848-4.576 6.443-6.184.737-.742 1.473-2.473-1.595-.37-4.356 3.03-8.651 5.874-8.651 5.874s-.982.618-2.823.061a126.724 126.724 0 0 1-3.988-1.298s-1.472-.928 1.043-1.917Z" fill="#fff"/></g></symbol><symbol id="Icons social media (2)"><g fill="none"><path d="M22.98 5.34c-.651-1.158-1.358-1.371-2.796-1.452-1.437-.097-5.05-.138-8.181-.138-3.136 0-6.752.04-8.187.136-1.435.083-2.143.295-2.8 1.454C.345 6.497 0 8.489 0 11.995v.012c0 3.492.345 5.5 1.016 6.644.657 1.158 1.363 1.368 2.798 1.465 1.438.085 5.053.134 8.189.134 3.13 0 6.744-.05 8.183-.132 1.438-.098 2.145-.307 2.796-1.465C23.657 17.508 24 15.5 24 12.008v-.012c0-3.508-.342-5.5-1.02-6.657ZM9 16.5v-9l7.5 4.5L9 16.5Z" fill="#fff"/></g></symbol><symbol id="Icons social media (3)"><g fill="none"><path d="M12 0C5.37 0 0 5.373 0 12.009c0 5.085 3.153 9.43 7.622 11.18-.108-.956-.199-2.399.036-3.444.216-.938 1.405-5.969 1.405-5.969s-.36-.721-.36-1.785c0-1.677.973-2.921 2.162-2.921 1.027 0 1.513.775 1.513 1.695 0 1.028-.648 2.578-.99 4.003-.289 1.19.594 2.164 1.783 2.164 2.126 0 3.766-2.254 3.766-5.5 0-2.867-2.072-4.887-5.01-4.887-3.404 0-5.422 2.56-5.422 5.212 0 1.027.396 2.145.9 2.74.09.127.109.217.09.343-.09.379-.288 1.19-.324 1.352-.054.217-.18.27-.396.163-1.496-.704-2.433-2.885-2.433-4.652 0-3.787 2.757-7.267 7.928-7.267 4.162 0 7.388 2.975 7.388 6.924 0 4.13-2.613 7.465-6.217 7.465-1.207 0-2.36-.631-2.756-1.37l-.74 2.849c-.27 1.045-1.008 2.344-1.495 3.155 1.118.343 2.307.541 3.55.541 6.63 0 12-5.373 12-12.009C24 5.373 18.63 0 12 0Z" fill="#fff"/></g></symbol><symbol id="Icons social media"><g fill="none"><path d="M13.072 19C4.872 19 .195 13.37 0 4h4.107c.135 6.877 3.163 9.79 5.562 10.39V4h3.868v5.93c2.368-.254 4.856-2.957 5.696-5.93H23.1c-.644 3.664-3.343 6.366-5.261 7.477C19.758 12.378 22.83 14.736 24 19h-4.258c-.914-2.853-3.192-5.06-6.205-5.36V19h-.465Z" fill="#fff"/></g></symbol><symbol id="Polair_master_logo 1"><g fill="none"><g clip-path="url(#a)"><path fill-rule="evenodd" clip-rule="evenodd" d="M48.955.003c-11.4 0-16.481 6.92-16.481 14.547 0 7.61 5.857 14.447 16.481 14.447 11.252 0 16.614-6.837 16.614-14.447 0-7.626-5.362-14.547-16.614-14.547Zm4.933 16.21c.198 4.94-1.056 9.928-3.58 10.5-2.672-.37-5.51-5.611-5.807-13.59-.182-4.637.61-9.794 3.399-10.852 2.342.436 5.675 5.358 5.988 13.942ZM83.403.675H71.838v27.65h19.368v-3.192l-7.803.017V.675Zm24.664 20.477h-8.694s-1.337 6.165-1.584 7.173h-3.366l6.17-27.65h15.344l6.087 27.65h-12.357l-1.6-7.173Zm-.627-2.855L104.322 4.32h-1.188l-3.118 13.977h7.424ZM166.239.675h-14.584v27.65h11.565v-9.793l1.551.15 4.273 9.643H181.5l-6.022-9.373-.479-.874c3.201-1.529 5.181-4.233 5.28-8.853.066-2.318-.627-4.703-2.326-6.3-2.61-2.456-6.495-2.362-9.943-2.28-.607.016-1.2.03-1.771.03Zm.132 15.891s-2.508-.168-3.135-.285V2.909c5.511 0 5.511 4.653 5.511 6.367 0 4.149-2.376 7.29-2.376 7.29Zm-25.275 11.76h-11.565V.674h11.565v27.65ZM28.662 8.99c0-7.71-6.649-8.315-13.462-8.315H.5v27.65h11.582v-7.744c1.105.235 2.54.37 4.042.37 6.203 0 12.538-2.15 12.538-11.96ZM15.2 18.313s-2.425-.134-3.118-.285V2.909c5.46 0 5.46 5.258 5.46 7.207 0 5.224-2.342 8.197-2.342 8.197Z" fill="#fff"/></g></g></symbol><symbol id="burger"><g fill="none"><path fill-rule="evenodd" clip-rule="evenodd" d="M1.25 16.667c0-.221.084-.433.233-.59a.778.778 0 0 1 .562-.244h15.91c.21 0 .413.088.562.244.15.157.233.369.233.59a.854.854 0 0 1-.233.589.778.778 0 0 1-.563.244H2.045a.778.778 0 0 1-.562-.244.854.854 0 0 1-.233-.59Zm0-6.667c0-.221.084-.433.233-.59a.778.778 0 0 1 .562-.243h15.91c.21 0 .413.087.562.244.15.156.233.368.233.589a.854.854 0 0 1-.233.59.778.778 0 0 1-.563.243H2.045a.778.778 0 0 1-.562-.244A.854.854 0 0 1 1.25 10Zm0-6.667c0-.22.084-.433.233-.589a.778.778 0 0 1 .562-.244h15.91c.21 0 .413.088.562.244.15.156.233.368.233.59a.854.854 0 0 1-.233.589.778.778 0 0 1-.563.244H2.045a.778.778 0 0 1-.562-.244.854.854 0 0 1-.233-.59Z" fill="#1E1E1E"/><path fill-rule="evenodd" clip-rule="evenodd" d="M2.045 2.563c-.193 0-.38.08-.517.224a.791.791 0 0 0-.216.546c0 .206.078.402.216.546a.715.715 0 0 0 .517.225h15.91c.193 0 .38-.08.517-.225a.791.791 0 0 0 .215-.546.791.791 0 0 0-.215-.546.715.715 0 0 0-.518-.224H2.045Zm-.607.138a.84.84 0 0 1 .607-.264h15.91a.84.84 0 0 1 .607.264c.16.168.25.396.25.632 0 .237-.09.465-.25.633a.84.84 0 0 1-.608.263H2.045a.84.84 0 0 1-.607-.263.916.916 0 0 1-.25-.633c0-.236.09-.464.25-.632Zm.607 6.528c-.193 0-.38.08-.517.225a.791.791 0 0 0-.216.546c0 .205.078.402.216.546a.715.715 0 0 0 .517.225h15.91c.193 0 .38-.08.517-.225a.791.791 0 0 0 .215-.546.791.791 0 0 0-.215-.546.715.715 0 0 0-.518-.225H2.045Zm-.607.139a.84.84 0 0 1 .607-.264h15.91a.84.84 0 0 1 .607.264c.16.168.25.395.25.632s-.09.464-.25.632a.84.84 0 0 1-.608.264H2.045a.84.84 0 0 1-.607-.264.916.916 0 0 1-.25-.632c0-.237.09-.464.25-.632Zm.607 6.528c-.193 0-.38.08-.517.225a.791.791 0 0 0-.216.546c0 .205.078.401.216.546a.715.715 0 0 0 .517.224h15.91c.193 0 .38-.08.517-.224a.792.792 0 0 0 .215-.546.791.791 0 0 0-.215-.546.715.715 0 0 0-.518-.225H2.045Zm-.607.138a.84.84 0 0 1 .607-.263h15.91a.84.84 0 0 1 .607.263c.16.169.25.396.25.633 0 .236-.09.464-.25.632a.84.84 0 0 1-.608.264H2.045a.84.84 0 0 1-.607-.264.917.917 0 0 1-.25-.632c0-.237.09-.465.25-.633Z" fill="#1E1E1E"/></g></symbol><symbol id="carboma-logo"><g fill="none"><g clip-path="url(#a)"><path fill-rule="evenodd" clip-rule="evenodd" d="M24.484 21.919 28.213 13h-6.661c-3.31.044-7.164.177-10.683 1.457C2.7 17.415.732 22.404.23 24.435c-.88 3.709.838 7.638 4.105 9.36 2.89 1.501 6.2 1.325 8.463.927 2.974-.53 5.362-1.59 7.08-3.135a2.98 2.98 0 0 1 .076-.07c.232-.208.9-.81.97-1.033l.336-1.28c-2.472.97-4.567 1.456-6.494 1.545-1.298.044-3.728-.089-5.069-1.766-2.136-2.605-.25-6.49 1.425-8.345 1.885-2.075 5.446-3.532 9.426-3.93l-2.179 5.21h6.116Zm56.22 1.5c-1.048-.308-2.179-.309-3.268-.309H75.34l-1.508 3.577h3.31c-.629 2.252-1.802 3.576-3.687 4.062-1.76.441-3.31.265-3.31.265l6.326-15.806h-6.41s-5.236 12.847-5.822 14.481c-1.131 3.135 1.508 4.724 4.147 4.9l.752.049c1.302.084 1.302.084 2.85.084 6.075 0 11.48-4.37 11.521-7.903.042-1.722-1.089-2.914-2.806-3.4Zm22.956 3.621c-.083-.883-.418-1.722-1.005-2.384-.67-.795-2.011-1.678-4.524-1.678h-1.76l-.763-.001c-2.764-.006-4.677-.011-6.484.84-2.64 1.236-4.943 3.576-4.65 6.887.126 1.28.838 2.473 1.885 3.135 1.09.663 2.514.972 3.728.972h2.606c2.734.007 4.473.011 6.317-.84 1.592-.75 3.142-1.898 3.98-3.575a5.835 5.835 0 0 0 .67-3.356Zm-6.577 2.252c-.418.662-1.047 1.192-1.717 1.457-1.006.441-2.095.53-3.184.53h-1.718v-.619c0-1.103.168-1.589.545-2.207.88-1.325 2.304-1.81 3.77-1.943l.105-.01c.378-.041.727-.078 1.11-.078h1.466s0 1.06-.041 1.501c.083.53-.084.971-.336 1.369Zm32.634 5.342c-.586 0-1.131-.22-1.675-.662-.545-.442-.754-.928-.754-1.501 0-.133.042-.31.083-.486.126-.398 1.634-3.974 1.634-3.974l-6.912 5.034c-1.676 1.192-3.1 1.81-4.273 1.81-1.089 0-1.801-.177-2.22-.618-.252-.265-.377-.574-.377-1.016 0-.353.084-.75.293-1.192l1.718-4.018-8.588 6.623h-5.404l4.775-11.48h6.368l-2.388 5.652 6.116-4.106c1.467-1.06 2.975-1.545 4.902-1.545h2.89c-.125.33-.487 1.209-.713 1.757l-.167.406-1.549 3.709 6.325-4.371c1.425-1.06 3.016-1.59 4.734-1.59.964 0 2.472.089 2.891.133l-4.567 11.435h-3.142Zm-90.403 0 4.818-11.48H34.32c-2.808-.007-4.97-.012-6.778.84-2.639 1.236-4.901 3.576-4.608 6.887.084.883.503 1.766 1.047 2.473.88 1.103 2.765 1.589 4.106 1.633 2.053 0 4.776-.795 6.032-2.472-.167.839.336 1.545.922 1.854.602.317 1.304.314 2.23.31h.325c-.041-.045 1.634-.045 1.718-.045Zm-4.86-3.576c-3.225 1.06-4.985.441-5.32-.486-.293-.706-.042-1.369.335-1.943.964-1.412 2.388-1.986 4.944-1.986h1.885l-1.843 4.415Zm17.847-3.09 5.907-4.813h6.325l-2.387 5.784h-5.991l.838-1.987-6.116 5.21-1.215 2.472h-6.368l4.65-11.48h6.326l-1.97 4.813ZM159 23.154l-4.818 11.479c-.083 0-1.801 0-1.717.044l-.327.001c-.925.004-1.627.007-2.229-.31-.586-.309-1.089-1.015-.921-1.854-1.257 1.677-3.98 2.472-6.033 2.472-1.34-.044-3.225-.53-4.105-1.633-.545-.707-.964-1.59-1.048-2.473-.293-3.311 1.969-5.651 4.609-6.887 1.808-.852 3.969-.847 6.776-.84H159Zm-14.997 7.417c.335.927 2.094 1.545 5.32.486l1.843-4.415h-1.885c-2.556 0-3.98.574-4.943 1.986-.377.574-.629 1.237-.335 1.943Z" fill="#8F9090"/></g></g></symbol><symbol id="convection"><g fill="none"><path fill-rule="evenodd" clip-rule="evenodd" d="M9.97.031c-2.707.3-5.034 1.429-6.876 3.335C1.724 4.785.805 6.423.327 8.304.067 9.326 0 9.91 0 11.08c.001 1.159.066 1.702.324 2.722 1.082 4.284 4.673 7.518 9.13 8.221.752.118 2.438.118 3.167 0 .62-.102 1.35-.275 1.798-.428l.33-.112.177.29c.24.389.883 1.048 1.313 1.344 2.482 1.716 5.892.841 7.228-1.853.145-.293.31-.72.38-.986.11-.415.124-.555.123-1.22 0-.657-.016-.808-.122-1.206a5.352 5.352 0 0 0-.738-1.606c-.297-.429-.956-1.072-1.345-1.312l-.29-.178.093-.266c.15-.432.362-1.347.447-1.93.098-.673.11-2.228.022-2.865-.52-3.763-2.767-6.932-6.067-8.553A11.078 11.078 0 0 0 12.644.097c-.638-.092-2.11-.128-2.675-.066Zm2.024.937a10.175 10.175 0 0 1 6.966 3.778c2.04 2.564 2.723 5.936 1.833 9.056-.169.593-.124.567-.734.421-.56-.133-1.582-.116-2.162.037-1.386.366-2.386 1.126-3.171 2.41-.05.081-.082.062-.393-.24a6.974 6.974 0 0 1-1.882-3.206l-.105-.39.194-.194.194-.194 1.563.268c1.681.287 2.145.322 2.643.196a2.988 2.988 0 0 0 2.158-2.292c.102-.536.1-2.778-.003-3.123a1.226 1.226 0 0 0-1.147-.85c-.377 0-.683.159-.965.499-1.069 1.286-2.275 2.092-3.72 2.486l-.438.12-.19-.203-.19-.204.266-1.572c.283-1.682.315-2.117.19-2.606a3.135 3.135 0 0 0-1.228-1.74 3.77 3.77 0 0 0-.67-.32l-.4-.144H7.505l-.25.139a1.198 1.198 0 0 0-.505 1.555c.083.18.21.322.504.568.541.453 1.092 1.047 1.412 1.522.344.512.75 1.36.896 1.871.198.69.2.657-.037.858l-.209.178-1.539-.267c-1.676-.29-2.121-.322-2.636-.189-.77.2-1.556.837-1.898 1.538-.289.592-.32.844-.304 2.455.014 1.342.02 1.42.116 1.598.233.432.595.653 1.072.656.456.002.711-.134 1.061-.564.897-1.101 2.077-1.921 3.327-2.312.755-.236.728-.236.944-.003l.187.203-.268 1.55c-.293 1.697-.323 2.13-.185 2.653.255.967 1.04 1.77 2.043 2.091.213.068.487.086 1.558.103l1.3.02.029.266c.038.347.144.889.206 1.05l.049.128-.386.117c-1.018.309-1.75.414-2.92.418-1.044.004-1.632-.066-2.54-.3a10.149 10.149 0 0 1-7.102-6.652C.382 11.007.95 7.63 2.992 4.914c.39-.519 1.218-1.372 1.708-1.758C6.784 1.512 9.44.714 11.994.968Zm-1.436 2.98c.578.15 1.04.539 1.305 1.1.23.488.225.838-.036 2.348a130.39 130.39 0 0 1-.24 1.362c-.025.119-.028.12-.498.114l-.474-.005-.15-.49a7.723 7.723 0 0 0-1.633-2.942c-.268-.304-.46-.487-1.085-1.027-.188-.163-.218-.308-.093-.446.071-.08.177-.086 1.35-.086.996 0 1.335.016 1.554.072Zm7.598 3.74c.062.088.073.295.073 1.312 0 .708-.021 1.31-.052 1.456a2.026 2.026 0 0 1-1.092 1.4c-.516.253-.826.247-2.509-.045-.757-.13-1.382-.238-1.389-.238-.007 0 .006-.111.028-.247.022-.135.028-.353.012-.484l-.028-.238.274-.061c.695-.155 1.604-.566 2.355-1.066.567-.378 1.346-1.088 1.751-1.597.19-.24.261-.296.37-.296.085 0 .16.037.207.104ZM11.42 9.863c.902.268 1.17 1.473.47 2.106-.257.232-.485.32-.842.324-.379.004-.663-.122-.93-.413-.19-.205-.336-.566-.336-.824 0-.484.382-1.015.845-1.175.317-.11.475-.113.793-.018Zm-3.961.423c.67.113 1.263.216 1.315.229.09.02.096.055.09.5l-.005.48-.371.103c-1.08.3-2.033.81-2.968 1.589-.356.296-.614.566-1.159 1.213-.128.153-.269.165-.399.035-.089-.089-.094-.156-.094-1.35 0-1.65.065-1.914.605-2.452.42-.419.986-.632 1.53-.577.13.013.784.117 1.456.23Zm3.789 2.95c.165-.022.228-.013.241.034.557 1.896 1.255 3.042 2.535 4.158l.277.241-.06.284-.06.284h-1.142c-.659 0-1.246-.022-1.39-.052a2.01 2.01 0 0 1-1.586-2.244c.055-.38.36-2.19.426-2.52l.047-.238.245.04c.134.023.345.028.467.012Zm8.79 1.95c2.065.527 3.365 2.596 2.936 4.673-.172.834-.54 1.494-1.17 2.095-1.556 1.487-3.94 1.484-5.516-.007a4.105 4.105 0 0 1-1.115-1.903c-.14-.522-.142-1.443-.004-1.952.428-1.588 1.71-2.752 3.297-2.995.419-.064 1.128-.024 1.573.09Zm-2.216.866c-.18.079-.25.198-.25.423 0 .136.1.316.519.944.48.718.518.791.504.973-.014.195-.016.197-.21.211-.182.013-.256-.025-.973-.504-.648-.434-.806-.52-.955-.52-.225 0-.365.098-.432.302-.095.287.008.428.6.82.288.19.514.36.502.379-.011.018-.243.18-.514.358-.57.374-.68.522-.588.797.03.09.107.2.173.242.244.16.38.112 1.183-.424.707-.471.768-.502.989-.502h.235v.187c0 .16-.076.301-.517.965-.44.663-.516.805-.516.965 0 .325.318.538.616.415.105-.044.244-.209.5-.593.195-.294.37-.517.388-.497.018.02.181.26.363.533.366.55.504.653.774.576.195-.056.379-.321.344-.496-.014-.07-.248-.461-.52-.868-.454-.681-.494-.759-.494-.964v-.223h.223c.206 0 .283.04.964.494.407.272.798.506.868.52.175.035.44-.149.496-.345.077-.27-.025-.407-.575-.773a17.518 17.518 0 0 1-.534-.363c-.02-.018.204-.193.497-.388.385-.257.55-.396.593-.5a.442.442 0 0 0-.415-.616c-.16 0-.301.076-.965.516-.664.44-.806.516-.965.516h-.187v-.235c0-.22.031-.281.502-.988.536-.804.584-.94.424-1.183a.532.532 0 0 0-.242-.174c-.275-.09-.423.019-.797.588-.178.272-.34.504-.358.515-.018.011-.189-.214-.379-.502-.256-.388-.384-.538-.497-.585-.183-.077-.187-.077-.374.005Z" fill="#003154"/></g></symbol><symbol id="dazzl-logo"><g fill="none"><g clip-path="url(#a)"><path fill-rule="evenodd" clip-rule="evenodd" d="M17.244 36H0V12h17.277c3.825 0 6.911 3.067 6.911 6.867v10.266A6.93 6.93 0 0 1 17.244 36Zm-7.85-9.333h4.26c.637 0 1.14-.5 1.14-1.134v-3.1c0-.633-.503-1.133-1.14-1.133h-4.26v5.367ZM33.446 12c-3.824 0-6.91 3.067-6.91 6.833V36h9.393v-2.867h5.401V36h9.393V12H33.447Zm2.483 12.567V22.4c0-.6.503-1.1 1.107-1.1h4.26v3.267H35.93ZM60.722 21.3 52.838 36h24.457v-9.3h-7.616L77.563 12H53.14v9.3h7.582ZM78.1 36l7.884-14.7h-7.582V12h24.423l-7.884 14.7h7.615V36H78.1Zm46.9 0v-9.3h-8.555V12h-11.473v24H125Z" fill="#8F9090"/></g></g></symbol><symbol id="diamond"><g fill="none"><path fill-rule="evenodd" clip-rule="evenodd" d="M16.637.999h41.15l17.69 23.562L37.703 62 0 24.633 16.637 1Zm4.093 7.778-7.794 11.072h49.222L53.844 8.777H20.73Zm40.556 18.85H14.12l23.583 23.375 23.584-23.375Z" fill="#174463"/></g></symbol><symbol id="drops"><g fill="none"><path fill-rule="evenodd" clip-rule="evenodd" d="M10.133.06c-.16.077-.829 1.119-1.233 1.922-.466.925-.532 1.517-.237 2.118.192.39.512.707.898.892.282.135.343.146.798.146.435 0 .523-.014.759-.125.644-.302 1.117-1.014 1.117-1.681 0-.462-.408-1.405-1.07-2.47-.512-.824-.694-.965-1.031-.803Zm.564 1.853c.356.623.6 1.2.6 1.417 0 .183-.113.46-.248.604-.312.334-.902.39-1.24.119-.44-.355-.492-.753-.184-1.404.223-.473.682-1.288.725-1.287.018 0 .174.248.347.55Zm6.776 1.428c-.308.112-1.508 2.243-1.648 2.927-.253 1.229.856 2.38 2.1 2.18 1.06-.171 1.768-1.162 1.559-2.18-.087-.424-.636-1.533-1.142-2.308-.297-.456-.4-.578-.524-.621-.178-.062-.168-.062-.345.002ZM5.702 3.81c-.145.053-.676.79-1.617 2.244-2.563 3.962-3.977 6.955-4.08 8.632-.032.534.073 1.33.25 1.888a5.929 5.929 0 0 0 3.763 3.842c.65.22 1.123.291 1.94.295l.736.004.237.394c.33.55.56.836 1.037 1.289.821.782 1.761 1.272 2.907 1.515.545.116 1.701.117 2.236.003 1.194-.256 2.11-.739 2.973-1.567l.454-.436.254.138c.14.075.475.211.746.302a4.875 4.875 0 0 0 4.334-.63 5.079 5.079 0 0 0 1.983-2.839c.111-.415.125-.553.125-1.218 0-.666-.014-.804-.125-1.22a5.022 5.022 0 0 0-3.575-3.572c-.403-.106-.568-.124-1.195-.128-.62-.003-.789.012-1.146.105-.487.128-1.049.356-1.386.564-.13.08-.246.146-.256.146-.01 0-.139-.226-.286-.5a52.508 52.508 0 0 0-1.607-2.738c-.748-1.2-2.02-3.086-2.139-3.168a.588.588 0 0 0-.28-.069c-.253 0-.325.086-1.272 1.512l-.795 1.197-.509-.89a65.935 65.935 0 0 0-2.445-3.901c-.605-.901-.783-1.133-.906-1.185-.175-.073-.18-.073-.356-.01Zm12.35 1.493c.552.99.637 1.344.417 1.743a.979.979 0 0 1-.616.466c-.625.168-1.276-.475-1.11-1.097.066-.248.393-.928.68-1.413.257-.435.202-.46.628.301Zm-11.505.763c1.037 1.576 2.121 3.371 2.659 4.402l.136.261-.282.466c-1.25 2.061-2.19 3.953-2.609 5.252-.278.86-.33 1.209-.3 1.99.014.376.06.818.1.983.042.165.062.313.047.328-.06.059-.998.017-1.381-.061a4.83 4.83 0 0 1-2.415-1.256 4.889 4.889 0 0 1-1.418-2.374c-.098-.371-.121-.573-.126-1.089-.005-.559.01-.688.124-1.097.475-1.701 1.94-4.485 4.034-7.664.412-.626.755-1.138.763-1.138.007 0 .308.448.668.997Zm6.1 3.26c1.072 1.63 1.771 2.781 2.501 4.115l.41.748-.242.267c-.483.534-.911 1.401-1.094 2.211-.118.523-.107 1.543.021 2.064.227.918.603 1.636 1.188 2.262l.338.361-.23.236a5.011 5.011 0 0 1-3.82 1.478c-1.225-.07-2.308-.558-3.194-1.437-.74-.734-1.172-1.54-1.382-2.577-.116-.574-.076-1.434.092-1.998.411-1.376 1.542-3.635 2.995-5.982.605-.977 1.729-2.674 1.771-2.674.02 0 .31.417.645.926ZM20 13.77a4.077 4.077 0 0 1 2.394 1.691c1.367 2.053.581 4.79-1.674 5.836-.607.282-.946.352-1.682.349-.548-.002-.69-.02-1.053-.13-1.395-.42-2.434-1.483-2.8-2.865-.141-.532-.14-1.443 0-1.97.422-1.57 1.646-2.684 3.274-2.98.32-.059 1.207-.019 1.541.07Zm-2.192.896c-.16.087-.224.204-.224.413 0 .13.105.324.516.942.44.664.516.806.516.965v.187h-.235c-.22 0-.281-.031-.98-.497-.798-.531-.95-.586-1.191-.429a.532.532 0 0 0-.173.242c-.09.275.018.423.588.797.271.178.504.341.517.362.013.02-.22.199-.516.395-.436.29-.549.388-.59.514-.063.19.03.455.189.54.25.134.392.08 1.216-.468.71-.472.806-.523.97-.51.177.015.182.02.196.212.013.182-.025.255-.505.973-.42.628-.518.808-.518.944 0 .23.072.345.266.427.301.126.439.036.82-.539.184-.275.35-.518.37-.54.02-.022.19.189.377.47.188.28.375.534.415.565.227.173.561.08.692-.194.104-.218.065-.307-.496-1.146-.444-.663-.474-.723-.474-.944v-.236h.185c.156 0 .302.078.95.508.421.28.816.52.878.537.164.043.41-.077.494-.241.163-.315.062-.47-.582-.897-.286-.19-.504-.359-.484-.377.02-.018.26-.182.534-.364.357-.238.514-.372.558-.477a.448.448 0 0 0-.152-.535c-.24-.178-.379-.13-1.19.41-.685.458-.762.498-.968.498h-.223v-.212c0-.191.048-.284.474-.92.561-.84.6-.929.496-1.146-.107-.224-.325-.328-.549-.26-.15.044-.22.123-.516.57a7.298 7.298 0 0 1-.376.538c-.018.012-.187-.212-.376-.498-.422-.638-.59-.747-.9-.58Z" fill="#003154"/></g></symbol><symbol id="ellipse"><g fill="none"><path fill-rule="evenodd" clip-rule="evenodd" d="M50.154 15.847c-9.428-9.428-24.88-9.428-34.308 0-9.427 9.427-9.427 24.88 0 34.306 9.428 9.428 24.88 9.428 34.308 0 9.427-9.427 9.427-24.88 0-34.306ZM9.64 9.64c12.854-12.855 33.864-12.855 46.718 0 12.855 12.854 12.855 33.863 0 46.718-12.855 12.855-33.864 12.855-46.718 0-12.855-12.855-12.855-33.864 0-46.718Z" fill="#174463"/></g></symbol><symbol id="envelope"><g fill="none"><path d="M2 1a1 1 0 0 0-1 1v10a1 1 0 0 0 1 1h13a1 1 0 0 0 1-1V2a1 1 0 0 0-1-1H2Zm5.9 7.175a1.005 1.005 0 0 0 1.2 0l.733-.55L15 11.5v.5H2v-.5l5.167-3.875.733.55Zm.6-.8L2 2.5V2h13v.5L8.5 7.375ZM2 3.75 6.333 7 2 10.25v-6.5Zm13 6.5L10.667 7 15 3.75v6.5Z" fill="#003154"/><path fill-rule="evenodd" clip-rule="evenodd" d="M2 1.1a.9.9 0 0 0-.9.9v10a.9.9 0 0 0 .9.9h13a.9.9 0 0 0 .9-.9V2a.9.9 0 0 0-.9-.9H2ZM.9 2A1.1 1.1 0 0 1 2 .9h13A1.1 1.1 0 0 1 16.1 2v10a1.1 1.1 0 0 1-1.1 1.1H2A1.1 1.1 0 0 1 .9 12V2Zm1-.1h13.2v.65L8.5 7.5 1.9 2.55V1.9Zm.2.2v.35l6.4 4.8 6.4-4.8V2.1H2.1Zm-.2 1.45L6.5 7l-4.6 3.45v-6.9Zm13.2 0v6.9L10.5 7l4.6-3.45Zm-13 .4v6.1L6.167 7 2.1 3.95ZM10.833 7l4.067 3.05v-6.1L10.833 7Zm-3.666.5.793.595a.906.906 0 0 0 1.08 0l.793-.595 5.267 3.95v.65H1.9v-.65L7.167 7.5Zm0 .25L2.1 11.55v.35h12.8v-.35l-5.067-3.8-.673.505a1.106 1.106 0 0 1-1.32 0l-.673-.505Z" fill="#003154"/></g></symbol><symbol id="frosteco-logo"><g fill="none"><path fill-rule="evenodd" clip-rule="evenodd" d="M2.836 36.122h2.469V19.827h4.538v-2.275H5.307v-.374c0-3.837 3.303-3.903 4.038-3.903h.5V11h-.5c-4.106 0-6.509 2.546-6.509 6.178v.374H0v2.275h2.836v16.295Zm9.311 0h2.469v-11c0-3.767 2.836-5.33 5.171-5.464v-2.511c-2.236-.07-4.238 1.087-5.24 3.089h-.067v-2.681h-2.336v18.567h.003ZM30 17.11c-5.406 0-9.546 4.21-9.546 9.742 0 5.534 4.171 9.71 9.546 9.71 5.372 0 9.546-4.176 9.546-9.71 0-5.532-4.14-9.742-9.546-9.742Zm0 2.275c4.106 0 7.075 3.258 7.075 7.47 0 4.208-2.97 7.435-7.075 7.435s-7.074-3.225-7.074-7.436c0-4.21 2.971-7.47 7.074-7.47Zm11.65 11.272c0 3.089 1.77 5.908 5.572 5.908 3.738 0 5.873-2.511 5.873-5.908 0-3.498-2.57-4.447-4.739-5.16-1.702-.544-3.57-1.223-3.57-3.36 0-1.562 1-2.75 2.736-2.75 1.535 0 2.67 1.122 2.635 2.785h2.469c.034-2.851-2.036-5.06-5.039-5.06-3.302 0-5.273 2.31-5.273 5.23 0 3.529 2.87 4.55 4.773 5.194 1.736.61 3.537 1.257 3.537 3.53 0 1.662-1.1 3.224-3.204 3.224-2.202 0-3.472-1.732-3.302-3.633h-2.469Zm16.416 5.465h2.469V19.827h4.238v-2.275h-4.238V11h-2.469v6.552h-3.803v2.275h3.803v16.295Zm27.399-8.385c.034-4.786-2.469-10.625-9.38-10.625-6.206 0-9.51 5.16-9.51 9.742 0 5.569 4.138 9.71 9.51 9.71 4.14 0 7.477-2.478 8.944-6.483h-2.57c-1.134 2.546-3.503 4.211-6.373 4.211-3.837 0-6.642-2.85-6.942-6.552h16.32v-.003Zm-16.318-2.275c.6-3.53 3.438-6.077 6.941-6.077 3.17 0 6.009 2.31 6.707 6.077H69.147Zm35.007 5.227c-1.3 2.341-3.636 3.598-6.14 3.598-3.97 0-7.276-3.259-7.276-7.502 0-4.107 3.037-7.4 7.275-7.4.834 0 4.306.135 6.141 3.802h2.771c-1.436-3.667-4.671-6.078-8.91-6.078-6.373 0-9.743 5.261-9.743 9.71 0 4.856 3.503 9.743 9.744 9.743 5.005 0 7.642-3.123 8.875-5.873h-2.737Zm15.252-13.58c-5.406 0-9.546 4.211-9.546 9.743 0 3.75 1.915 6.875 4.822 8.502-.351.139-.713.262-1.086.373 4.893 1.792 9.717 1.922 13.721-1.111 4.88-5.025 4.919-11.861.065-15.642a3.33 3.33 0 0 0-.367-.178c.365.602.678 1.233.931 1.888 1.363 3.532.969 7.724-2.597 11.354-.061-.06.117-.356.406-.837 1.049-1.744 3.567-5.932 1.536-10.265a11.117 11.117 0 0 0-1.23-2.32c-.36.006-.713.096-1.057.261-1.556-1.12-3.48-1.767-5.598-1.767Zm6.495 3.768h.39l.135.39c-.373.952-1.9 3.07-3.772 4.206.678-.785 1.368-1.604 1.971-2.448a13.37 13.37 0 0 0 1.276-2.147Zm-2.663-.383c-1.083-.706-2.387-1.11-3.832-1.11-4.105 0-7.074 3.26-7.074 7.47 0 3.4 1.935 6.157 4.841 7.093 1.696-1.336 2.94-3.332 3.599-6.318.402-2.95 1.303-5.505 2.466-7.135Zm6.605 3.353a8.218 8.218 0 0 1-.766-.798l.049.84.105.047c.411.183.427.19.985.224-.089-.073-.133-.107-.165-.132a2.594 2.594 0 0 1-.208-.18Zm.481 2.42c-.337-.306-.783-.71-1-1.136l-.153.726c.427.281.688.427 1.269.584.011.003.016-.01.022-.023l.009-.017-.147-.135Zm-.887 1.354a4.502 4.502 0 0 1-.553-.81l-.219.632c.576.58.85.742 1.551.925a5.702 5.702 0 0 1-.779-.747Zm-4.304 3.156c.196-.211.368-.397.524-.534l.284-1.18c-.367.516-1.385 1.537-1.967 2.12l-.238.24c-.485.49-.983.968-1.596 1.427 1.438-.393 2.345-1.373 2.993-2.073Zm-3.35.158c2.492-.769 4.408-3.07 5.021-3.853l.141-1.299c-.696.886-1.966 2.373-2.732 3.134a16.51 16.51 0 0 1-2.43 2.018Zm.634-2.537c2.56-1.461 4.144-3.83 4.653-4.744l-.198-1.005c-.48.864-1.468 2.315-2.127 3.192a18.215 18.215 0 0 1-2.328 2.557Z" fill="#8F9090"/></g></symbol><symbol id="heart"><g fill="none"><path fill-rule="evenodd" clip-rule="evenodd" d="M60.067 12.743c-5.288-5.559-15.627-5.892-21.266.46l-3.014 3.394-3.221-3.201c-6.521-6.48-16.32-5.788-20.302-.841l-.052.065-.056.063c-5.038 5.778-4.884 14.854 1.066 20.029l.123.106 22.74 23.036L58.78 32.867l.069-.064c5.699-5.286 6.082-14.415 1.219-20.06ZM35.438 4.721c9.39-7.242 23.268-5.894 30.94 2.275l.053.057.052.06c7.902 9.061 7.305 23.394-1.723 31.841L36.086 68 7.458 39c-9.701-8.562-9.539-22.912-1.824-31.825C12.68-1.495 26.06-1.857 35.438 4.72Z" fill="#174463"/></g></symbol><symbol id="pg-logo-blue"><g fill="none"><g clip-path="url(#a)"><path fill-rule="evenodd" clip-rule="evenodd" d="M41.6 7.635c.985.411 1.678 1.196 2.08 2.092.401.86.584 1.831.584 2.803 0 1.644-.62 3.25-1.898 4.222a5.41 5.41 0 0 1-1.86.896c-.694.15-1.497.262-2.227.262h-.766c-.073 0-.155-.01-.237-.019a2.18 2.18 0 0 0-.238-.018h-.109v3.661h-3.248V7.374l.146-.038c.584-.112 1.241-.187 1.934-.261A45.75 45.75 0 0 1 38.024 7c.365 0 .766.037 1.167.075.438.037.876.112 1.278.187.401.112.766.224 1.13.373Zm-3.978 7.323c.402.038.876.038 1.278-.037.51-.075 2.08-.336 2.08-2.317 0-2.071-1.29-2.361-1.687-2.45a3.975 3.975 0 0 0-1.05-.127c-.157 0-.313.01-.458.02a5.332 5.332 0 0 1-.345.017c-.146 0-.474.037-.474.037v4.82s.547.037.656.037ZM0 36.18V7.15h25.252v29.03l-12.626 4.745L0 36.18Zm20.18-20.064a20.358 20.358 0 0 0-1.095-.336c-1.679-.41-3.284-.448-4.598-.112.51.374 1.058.972 1.496 1.756 1.168-.112 2.445.075 3.722.598.117.051.227.103.329.15.12.057.23.108.328.149l.766-1.756-.073-.038a4.821 4.821 0 0 0-.875-.41ZM7.043 17.424h.11c.12 0 .266-.026.437-.056l.11-.019c.547-.074 1.24-.15 1.277-.15H9.962c.657 0 1.277.225 1.533.337.401.15.766.374 1.058.673.292.261.51.598.657 1.009.146.373.219.822.219 1.27 0 .523-.073 1.009-.256 1.457-.182.411-.401.822-.73 1.12l-.109.113.002.008c.04.206.226 1.16.837 1.897.22-.149.438-.298.657-.485.547-.449.949-1.046 1.277-1.719.329-.673.475-1.494.475-2.391a5.86 5.86 0 0 0-.402-2.167 4.233 4.233 0 0 0-1.13-1.607 5.004 5.004 0 0 0-1.753-.971c-.583-.187-1.605-.411-2.48-.411-1.388 0-2.665.112-3.212.224h-.183c-.291 0-1.058.075-1.642.224l-.11.038v13.338h2.117v-3.699c.365.112 1.095.299 2.08.448a9.263 9.263 0 0 1-.577-1.91l-.006-.032c-.474-.081-.871-.181-1.18-.259-.119-.03-.225-.057-.317-.078v-6.165c.037 0 .082-.009.128-.018.046-.01.091-.019.128-.019ZM21.2 28.147l.037-.037h.036v-5.866h-4.05L16.42 24l2.956-.037v2.914l-.073.075c-.024.012-.045.024-.065.037-.04.025-.081.05-.154.075-.183.074-.438.15-.693.224-.256.075-.511.112-.803.15-1.679.223-3.941-.113-5.182-1.794-1.131-1.495-1.35-3.886-.547-5.53.11-.261.255-.486.438-.71-.475-.859-1.35-1.009-1.68-1.046-.838 1.196-1.35 2.653-1.35 4.073 0 2.989 1.46 5.38 3.905 6.463.913.411 2.007.598 3.139.598.948 0 1.934-.112 2.919-.41a8.035 8.035 0 0 0 1.131-.412l.17-.095.002-.001c.258-.145.487-.273.667-.427Zm19.779 4.67-1.168 2.653h3.211v2.055c-.146.075-.292.15-.474.187-.192.066-.412.102-.611.136l-.083.014a4.377 4.377 0 0 1-.693.074c-.12 0-.24.011-.35.022-.088.008-.168.016-.234.016-.584 0-1.13-.038-1.642-.15-.474-.112-.912-.261-1.277-.523-.547-.336-.985-.822-1.314-1.457-.328-.635-.474-1.383-.474-2.28 0-.746.11-1.419.328-2.017.22-.56.548-1.046.95-1.42.218-.186.437-.373.729-.523.255-.15.547-.261.84-.336.291-.075.62-.15.912-.187a7.552 7.552 0 0 1 2.882.224c.657.187 1.241.411 1.825.673l.182.075.95-2.915-.147-.074c-.766-.374-1.569-.598-2.445-.785a15.486 15.486 0 0 0-2.59-.224c-.475 0-.986.037-1.533.112a7.97 7.97 0 0 0-1.57.374 7.84 7.84 0 0 0-1.495.71 6.198 6.198 0 0 0-1.314 1.12c-.256.3-.511.636-.766.972-.22.373-.438.747-.62 1.195-.183.411-.293.897-.402 1.383-.11.486-.146 1.009-.146 1.569 0 1.158.182 2.204.51 3.101.33.897.84 1.681 1.533 2.354.402.374.803.71 1.277.971.475.262.95.486 1.46.636a10.95 10.95 0 0 0 3.065.448c.365 0 .73 0 1.168-.037.38-.033.758-.093 1.16-.157l.19-.03c.475-.112.95-.224 1.423-.411l.067-.026c.461-.182 1.014-.399 1.466-.684l.073-.038V32.93H40.98v-.112Zm57.29-6.351c.402.112.767.224 1.132.373 1.022.412 1.679 1.159 2.08 2.055.401.822.584 1.831.584 2.803 0 1.644-.62 3.25-1.898 4.222a5.406 5.406 0 0 1-1.86.896c-.694.15-1.497.262-2.227.262h-.766a2.18 2.18 0 0 1-.237-.019 2.204 2.204 0 0 0-.237-.019h-.11v3.662h-3.247V26.578l.145-.037c.584-.113 1.241-.187 1.934-.262.694-.037 1.57-.075 2.263-.075.365 0 .766.038 1.168.075.438.037.875.112 1.277.187Zm-2.846 7.697c.402.037.876.037 1.278-.038l.082-.017h.001c.58-.121 1.997-.417 1.997-2.3 0-2.07-1.29-2.36-1.687-2.45a3.975 3.975 0 0 0-1.05-.127c-.157 0-.313.01-.458.02a5.332 5.332 0 0 1-.345.017c-.146 0-.474.037-.474.037v4.82s.547.038.656.038Zm-43.278-12.33c1.095 0 2.08-.187 2.956-.523.876-.374 1.605-.86 2.226-1.532.62-.635 1.058-1.457 1.386-2.354.329-.897.475-1.905.475-3.026 0-1.084-.146-2.092-.475-2.99-.328-.896-.766-1.68-1.386-2.353a6.821 6.821 0 0 0-2.226-1.532C54.226 7.15 53.24 7 52.146 7a8.43 8.43 0 0 0-2.846.486 6.445 6.445 0 0 0-2.226 1.457c-.62.635-1.095 1.42-1.423 2.354-.329.934-.511 1.98-.511 3.138s.182 2.205.51 3.139c.329.934.803 1.718 1.424 2.353.62.636 1.35 1.121 2.226 1.458.839.261 1.824.448 2.846.448ZM48.57 14.36c0-.784.073-1.457.255-2.017.183-.56.402-1.009.73-1.383.328-.373.693-.635 1.131-.784.438-.187.95-.262 1.496-.262.62 0 1.168.112 1.606.337.438.224.84.523 1.131.934.292.373.511.859.657 1.42a7.09 7.09 0 0 1 .22 1.793c0 .635-.074 1.233-.22 1.793a4.21 4.21 0 0 1-.657 1.42c-.292.374-.657.71-1.13.934-.439.224-.986.336-1.607.336-.547 0-1.058-.074-1.496-.261a3.447 3.447 0 0 1-1.13-.785c-.33-.373-.548-.822-.73-1.382-.183-.635-.256-1.308-.256-2.093Zm15.91 4.185h4.16l-1.277 2.989h-6.13V7.149h3.247v11.396Zm7.408 2.989 1.24-2.952h5.401l1.24 2.952h3.467l-6.13-14.385h-2.372l-6.13 14.385h3.284Zm3.94-9.714.475 1.42 1.095 2.652H74.26l1.094-2.615.475-1.457Zm8.94-4.67h3.249v14.384h-3.248V7.149Zm9.671 8.78 1.57.186 3.977 5.418H104l-4.379-5.604-.474-.486.105-.04c.264-.1.545-.206.77-.371a4.33 4.33 0 0 0 .986-.86 3.3 3.3 0 0 0 .657-1.232 5.474 5.474 0 0 0 .255-1.607c0-.784-.146-1.457-.474-2.017-.329-.56-.73-1.01-1.278-1.346a4.144 4.144 0 0 0-.912-.448 8.792 8.792 0 0 0-1.058-.299c-.365-.075-.73-.112-1.131-.15-.365-.037-.73-.037-1.095-.037-.292 0-.657 0-1.058.038-.37 0-.74.032-1.14.066l-.101.008c-.438.038-.84.075-1.24.113a8.668 8.668 0 0 0-1.095.149l-.146.037v14.086h3.247V15.93Zm3.358-2.504c-.256.15-.548.262-.913.3-.365.074-.73.074-1.058.074h-1.387v-3.475h.183c.146 0 .292 0 .438-.037h.51c.548 0 1.059 0 1.497.075.292.037.584.15.803.299.218.149.364.298.51.56.11.224.183.486.183.71 0 .41-.073.71-.183.971a3.944 3.944 0 0 1-.584.523ZM56.52 34.571l-.106.04.475.523 4.379 5.604h-4.014l-3.978-5.417-1.57-.187v5.604H48.46V26.615l.146-.037a8.68 8.68 0 0 1 1.095-.15h.002c.4-.037.801-.074 1.239-.112l.1-.008c.4-.035.77-.066 1.14-.066.402-.038.767-.038 1.059-.038.364 0 .73 0 1.094.038.402.037.767.074 1.132.15.364.074.73.186 1.058.298.328.112.62.262.912.448.547.337.949.785 1.277 1.345.329.56.475 1.233.475 2.018 0 .598-.11 1.12-.256 1.607a3.301 3.301 0 0 1-.657 1.233c-.292.336-.62.635-.985.859-.225.164-.507.271-.77.37Zm-.945-2.8c.11-.261.182-.56.182-.971a1.82 1.82 0 0 0-.146-.673 1.504 1.504 0 0 0-.51-.56 1.899 1.899 0 0 0-.803-.299c-.438-.075-.949-.075-1.496-.075h-.511c-.146.038-.292.038-.438.038h-.183v3.474h1.387c.329 0 .694 0 1.058-.074.365-.038.657-.15.913-.3.219-.149.401-.336.547-.56Zm17.48-3.586a6.822 6.822 0 0 0-2.227-1.532c-.875-.374-1.86-.523-2.955-.523a8.431 8.431 0 0 0-2.847.485 6.445 6.445 0 0 0-2.226 1.458c-.62.635-1.095 1.42-1.423 2.353-.328.934-.51 1.98-.51 3.139 0 1.158.182 2.204.51 3.138.328.934.803 1.719 1.423 2.354s1.35 1.121 2.226 1.457c.84.336 1.825.486 2.847.486 1.094 0 2.08-.187 2.955-.523.876-.374 1.606-.86 2.226-1.532.62-.672 1.058-1.457 1.387-2.354.328-.897.474-1.905.474-3.026 0-1.084-.146-2.092-.474-2.99-.328-.933-.766-1.755-1.387-2.39Zm-1.57 5.343c0 .635-.073 1.232-.219 1.793a4.212 4.212 0 0 1-.657 1.42c-.292.373-.656.71-1.13.934-.439.224-.986.336-1.606.336-.548 0-1.059-.075-1.497-.262a3.447 3.447 0 0 1-1.13-.784c-.33-.374-.548-.822-.73-1.383-.183-.56-.256-1.233-.256-2.017 0-.785.073-1.457.255-2.018.183-.56.402-1.009.73-1.382a2.413 2.413 0 0 1 1.131-.785c.438-.187.95-.261 1.497-.261.62 0 1.167.112 1.605.336.438.224.84.523 1.131.934.292.374.511.86.657 1.42.146.485.22 1.083.22 1.719Zm13.903 3.026c.11-.337.183-.748.183-1.233v-8.93h3.102v9.08c0 .933-.146 1.755-.438 2.428a4.081 4.081 0 0 1-1.168 1.718 4.984 4.984 0 0 1-1.788 1.01 8.383 8.383 0 0 1-2.19.298c-.912 0-1.751-.075-2.48-.299a5.399 5.399 0 0 1-1.898-.971 3.948 3.948 0 0 1-1.168-1.607 5.918 5.918 0 0 1-.401-2.204V26.39h3.247v8.93c0 .897.22 1.606.62 2.017.402.411 1.095.636 2.044.636.401 0 .766-.038 1.095-.15.292-.075.547-.224.766-.448.22-.224.365-.486.474-.822Z" fill="#003154"/></g></g></symbol><symbol id="pg-logo-grey"><g fill="none"><path fill-rule="evenodd" clip-rule="evenodd" d="M40 .598c.947.387 1.614 1.125 2 1.969.386.809.561 1.723.561 2.637 0 1.548-.596 3.06-1.824 3.974a5.251 5.251 0 0 1-1.79.844c-.666.14-1.438.246-2.14.246H36.07c-.07 0-.15-.009-.228-.018-.079-.008-.158-.017-.228-.017h-.105v3.446h-3.123V.352l.14-.036a24.072 24.072 0 0 1 1.86-.246A44.94 44.94 0 0 1 36.56 0c.351 0 .737.035 1.123.07.421.035.842.106 1.228.176.386.106.737.211 1.088.352ZM36.175 7.49c.386.035.842.035 1.228-.035.492-.07 2-.317 2-2.18 0-1.95-1.239-2.223-1.621-2.307a3.905 3.905 0 0 0-1.01-.12c-.15 0-.301.01-.44.02-.122.008-.234.016-.332.016-.14 0-.456.035-.456.035v4.536s.526.035.631.035ZM0 27.464V.14h24.28v27.323L12.14 31.93 0 27.464ZM19.404 8.58a19.904 19.904 0 0 0-1.053-.316c-1.614-.387-3.158-.422-4.421-.106.491.352 1.017.914 1.438 1.653 1.123-.106 2.351.07 3.58.563.112.048.217.096.315.141.116.053.221.102.316.14l.737-1.653-.07-.035a4.677 4.677 0 0 0-.842-.387ZM6.772 9.81h.105c.116 0 .257-.023.421-.051l.106-.018C7.93 9.67 8.595 9.6 8.632 9.6H9.579c.631 0 1.228.21 1.474.316.386.141.736.352 1.017.633.28.247.491.563.632.95.14.351.21.774.21 1.195 0 .493-.07.95-.245 1.372-.176.387-.386.773-.702 1.055l-.105.105.001.008c.039.194.218 1.092.806 1.786.21-.141.42-.282.631-.457.527-.422.912-.985 1.228-1.618.316-.633.456-1.407.456-2.25 0-.739-.14-1.442-.385-2.04a3.986 3.986 0 0 0-1.088-1.512 4.842 4.842 0 0 0-1.684-.914c-.562-.176-1.544-.387-2.386-.387-1.334 0-2.562.105-3.088.21h-.176c-.28 0-1.017.071-1.579.212l-.105.035v12.554h2.035V17.37c.351.106 1.053.282 2 .422a8.577 8.577 0 0 1-.555-1.797l-.006-.031c-.455-.076-.837-.17-1.134-.244a14.353 14.353 0 0 0-.305-.073V9.846a.686.686 0 0 0 .123-.017.686.686 0 0 1 .123-.018Zm13.614 10.093.035-.035h.035v-5.52h-3.895L15.79 16l2.842-.035v2.743l-.07.07c-.024.012-.044.023-.063.035-.039.024-.078.047-.148.07-.176.07-.421.141-.667.211-.245.07-.491.106-.772.141-1.614.211-3.79-.105-4.982-1.688-1.088-1.406-1.298-3.657-.527-5.204.106-.246.246-.457.421-.668-.456-.81-1.298-.95-1.614-.985-.807 1.125-1.298 2.497-1.298 3.833 0 2.813 1.404 5.064 3.755 6.084.877.386 1.93.562 3.017.562.912 0 1.86-.105 2.807-.387a7.838 7.838 0 0 0 1.088-.387l.165-.09c.248-.136.469-.257.642-.402ZM39.404 24.3l-1.123 2.497h3.087v1.934c-.14.07-.28.14-.456.175-.184.062-.396.097-.587.128l-.08.013c-.21.035-.455.07-.666.07-.116 0-.232.011-.336.02-.085.009-.162.016-.225.016-.562 0-1.088-.036-1.58-.141-.455-.106-.877-.246-1.227-.492-.527-.317-.948-.774-1.264-1.372-.315-.598-.456-1.3-.456-2.145 0-.703.106-1.336.316-1.899a3.62 3.62 0 0 1 .912-1.336c.21-.176.421-.352.702-.492.246-.141.526-.246.807-.317.28-.07.597-.14.877-.176a7.411 7.411 0 0 1 2.772.211c.632.176 1.193.387 1.755.633l.175.07.912-2.742-.14-.07c-.737-.352-1.509-.563-2.35-.739a15.217 15.217 0 0 0-2.492-.211c-.456 0-.947.035-1.474.105a7.61 7.61 0 0 0-2.947 1.02 5.931 5.931 0 0 0-1.263 1.055c-.246.282-.491.598-.737.915-.21.351-.421.703-.597 1.125-.175.387-.28.844-.386 1.3-.105.458-.14.95-.14 1.478 0 1.09.175 2.075.491 2.919a5.847 5.847 0 0 0 1.474 2.215c.386.352.772.668 1.228.914.456.246.912.457 1.404.598a10.753 10.753 0 0 0 2.947.422c.35 0 .702 0 1.123-.035.364-.03.729-.087 1.116-.148l.182-.028c.456-.106.912-.211 1.368-.387l.064-.024c.444-.171.975-.376 1.41-.644l.07-.035v-6.295h-4.666V24.3ZM94.49 18.32c.386.105.737.21 1.088.351.982.387 1.614 1.09 2 1.934.386.774.561 1.724.561 2.638 0 1.547-.596 3.06-1.824 3.974a5.25 5.25 0 0 1-1.79.843c-.666.141-1.438.247-2.14.247H91.649c-.07 0-.149-.01-.228-.018-.079-.009-.158-.018-.228-.018h-.105v3.447h-3.123V18.426l.14-.035a24.052 24.052 0 0 1 1.86-.246c.666-.035 1.509-.07 2.175-.07.351 0 .737.035 1.123.07.421.035.842.105 1.228.176Zm-2.737 7.244a4.79 4.79 0 0 0 1.228-.035l.016-.004.065-.013c.557-.114 1.92-.393 1.92-2.164 0-1.95-1.24-2.222-1.622-2.306l-.063-.014a3.907 3.907 0 0 0-.947-.106c-.15 0-.301.01-.44.02-.122.008-.234.015-.332.015-.14 0-.456.035-.456.035v4.537s.526.035.631.035ZM50.14 13.96c1.053 0 2-.175 2.842-.492.843-.352 1.544-.809 2.14-1.442.597-.598 1.018-1.371 1.334-2.215.316-.844.456-1.793.456-2.848 0-1.02-.14-1.97-.456-2.814-.316-.844-.737-1.582-1.333-2.215a6.564 6.564 0 0 0-2.14-1.442C52.14.141 51.192 0 50.14 0c-1.017 0-1.93.176-2.736.457-.808.317-1.544.774-2.14 1.372-.597.597-1.053 1.336-1.37 2.215a8.69 8.69 0 0 0-.49 2.954c0 1.09.175 2.074.49 2.954.317.879.773 1.617 1.37 2.215a5.898 5.898 0 0 0 2.14 1.371 9.503 9.503 0 0 0 2.736.422Zm-3.438-7.033c0-.738.07-1.371.245-1.898.176-.528.386-.95.702-1.302.316-.351.667-.597 1.088-.738.42-.176.912-.246 1.438-.246.597 0 1.123.105 1.544.316.421.211.807.493 1.088.88.28.351.491.808.632 1.336.14.527.21 1.09.21 1.688 0 .597-.07 1.16-.21 1.688-.14.527-.351.949-.632 1.336-.28.351-.632.668-1.088.879-.42.21-.947.316-1.544.316-.526 0-1.017-.07-1.438-.246a3.316 3.316 0 0 1-1.088-.738c-.316-.352-.526-.774-.702-1.301-.175-.598-.245-1.231-.245-1.97ZM62 10.866h4l-1.228 2.813h-5.895V.141H62v10.725Zm7.123 2.813 1.193-2.778h5.193l1.193 2.778h3.333L74.14.141h-2.28l-5.895 13.538h3.158Zm3.79-9.143.455 1.336 1.053 2.497h-3.018l1.053-2.461.456-1.372ZM81.508.141h3.122v13.538H81.51V.141Zm9.298 8.263 1.509.176 3.824 5.1H100l-4.21-5.276-.457-.457.102-.037c.253-.094.524-.195.74-.35.351-.21.667-.492.948-.808.28-.317.491-.704.631-1.16.14-.458.246-.95.246-1.513 0-.738-.14-1.371-.456-1.899-.316-.527-.702-.95-1.228-1.266a4.033 4.033 0 0 0-.877-.422A8.6 8.6 0 0 0 94.42.211c-.35-.07-.702-.105-1.088-.14-.35-.036-.701-.036-1.052-.036-.281 0-.632 0-1.018.035-.356 0-.712.03-1.096.063L90.07.14c-.42.035-.807.07-1.193.105-.386.035-.737.07-1.052.14l-.14.036v13.257h3.122V8.404Zm3.228-2.356c-.245.141-.526.247-.877.282-.35.07-.702.07-1.018.07h-1.333V3.13h.175c.14 0 .281 0 .421-.035h.492c.526 0 1.017 0 1.438.07.281.035.562.14.772.281.21.14.351.281.492.528.105.21.175.457.175.668 0 .387-.07.668-.175.914-.176.176-.351.352-.562.492ZM54.347 25.95l-.102.038.457.492 4.21 5.275h-3.86l-3.824-5.1-1.509-.175v5.275h-3.123V18.46l.14-.035c.317-.07.667-.105 1.053-.14h.002c.385-.036.77-.07 1.191-.106l.097-.008c.384-.032.74-.062 1.096-.062.386-.035.737-.035 1.018-.035.35 0 .702 0 1.053.035.385.035.736.07 1.087.14s.702.176 1.018.282c.316.105.596.246.877.422.526.316.912.738 1.228 1.266.316.527.456 1.16.456 1.899 0 .562-.105 1.055-.245 1.512-.14.457-.351.844-.632 1.16-.28.317-.596.598-.947.809-.217.155-.488.255-.741.349Zm-.909-2.635a2.23 2.23 0 0 0 .176-.914c0-.246-.07-.457-.14-.633a1.426 1.426 0 0 0-.492-.527 1.847 1.847 0 0 0-.772-.282c-.42-.07-.912-.07-1.438-.07h-.491c-.14.035-.281.035-.422.035h-.175v3.27h1.333c.316 0 .667 0 1.018-.07.35-.035.632-.14.877-.281.21-.141.386-.317.526-.528Zm16.808-3.375a6.566 6.566 0 0 0-2.14-1.442c-.843-.352-1.79-.493-2.843-.493-1.017 0-1.93.176-2.737.458-.807.316-1.544.773-2.14 1.371-.597.598-1.053 1.336-1.369 2.215a8.686 8.686 0 0 0-.49 2.954c0 1.09.175 2.075.49 2.954.316.88.772 1.618 1.369 2.215a5.9 5.9 0 0 0 2.14 1.372c.807.316 1.755.457 2.737.457 1.053 0 2-.176 2.842-.492.842-.352 1.544-.81 2.14-1.442.597-.633 1.018-1.371 1.334-2.215.316-.844.456-1.794.456-2.849 0-1.02-.14-1.969-.456-2.813-.316-.88-.737-1.653-1.333-2.25Zm-1.51 5.028c0 .598-.07 1.16-.21 1.688-.14.527-.35.95-.631 1.336-.281.352-.632.668-1.088.88-.421.21-.948.316-1.544.316-.526 0-1.017-.07-1.439-.246a3.317 3.317 0 0 1-1.087-.739c-.316-.351-.527-.773-.702-1.3-.175-.528-.246-1.161-.246-1.9 0-.738.07-1.371.246-1.899.175-.527.386-.95.702-1.3.28-.352.666-.599 1.087-.74.422-.175.913-.245 1.439-.245.596 0 1.123.105 1.544.316.42.211.807.492 1.088.88.28.35.49.808.631 1.335.14.458.21 1.02.21 1.618Zm13.37 2.848c.105-.316.175-.703.175-1.16V18.25h2.982v8.546c0 .879-.14 1.652-.42 2.285a3.84 3.84 0 0 1-1.124 1.618 4.817 4.817 0 0 1-1.719.95 8.22 8.22 0 0 1-2.105.28c-.877 0-1.684-.07-2.386-.28a5.232 5.232 0 0 1-1.825-.915 3.722 3.722 0 0 1-1.123-1.512 5.466 5.466 0 0 1-.386-2.075v-8.896h3.123v8.404c0 .844.21 1.512.597 1.899.386.387 1.052.598 1.965.598.386 0 .737-.036 1.052-.141.281-.07.527-.211.737-.422.21-.211.351-.457.456-.774Z" fill="#8F9090"/></g></symbol><symbol id="polair+-logo"><g fill="none"><g clip-path="url(#a)"><path fill-rule="evenodd" clip-rule="evenodd" d="M24.079 24.042C24.079 18.27 27.915 13 36.485 13c8.489 0 12.57 5.27 12.57 11.042S44.974 35 36.485 35c-7.999 0-12.406-5.186-12.406-10.958Zm13.467 9.201c1.878-.418 2.857-4.266 2.694-7.946-.245-6.525-2.775-10.206-4.49-10.54-2.121.836-2.693 4.684-2.53 8.197.164 6.023 2.286 10.038 4.326 10.29ZM53.79 13.502h8.733v18.57H68.4v2.426H53.79V13.502Zm20.813 15.559h6.53l1.224 5.437h9.305l-4.57-20.996H75.5l-4.653 20.996h2.53c.245-.753 1.225-5.437 1.225-5.437Zm3.673-12.799 2.367 10.624h-5.632l2.367-10.624h.898Zm35.669-2.76h11.019c.44 0 .899-.012 1.37-.024 2.585-.067 5.512-.143 7.445 1.697 1.306 1.255 1.796 3.011 1.796 4.768-.082 3.513-1.551 5.52-4 6.692l.327.67 4.571 7.11h-9.387l-3.265-7.362-1.143-.084v7.445h-8.733V13.502Zm8.733 11.878c.49.084 2.367.251 2.367.251s1.796-2.426 1.796-5.52c0-1.34 0-4.853-4.163-4.853V25.38Zm-25.384 9.118h8.734V13.502h-8.734v20.996ZM11.101 13.502c5.142 0 10.12.502 10.12 6.274 0 7.445-4.815 9.118-9.467 9.118-1.143 0-2.204-.084-3.02-.251v5.855H0V13.502h11.1ZM8.734 26.719c.49.083 2.367.25 2.367.25s1.795-2.258 1.795-6.19c0-1.505 0-5.437-4.08-5.437V26.72h-.082Zm148.308-7.11H163v8.783h-5.958v6.106h-8.571v-6.106h-5.958v-8.784h5.958v-6.106h8.571v6.106Z" fill="#8F9090"/></g></g></symbol><symbol id="polair-logo-desktop"><g fill="none"><g clip-path="url(#a)"><path fill-rule="evenodd" clip-rule="evenodd" d="M53.97.003c-12.697 0-18.357 7.637-18.357 16.053 0 8.396 6.523 15.94 18.357 15.94 12.532 0 18.505-7.543 18.505-15.94C72.475 7.64 66.502.003 53.97.003Zm5.495 17.888c.22 5.45-1.177 10.955-3.988 11.585-2.977-.408-6.137-6.191-6.468-14.996-.202-5.116.68-10.807 3.785-11.974 2.61.482 6.321 5.913 6.67 15.385ZM92.338.745H79.457v30.51h21.573v-3.522l-8.692.019V.745ZM119.81 23.34h-9.684s-1.489 6.803-1.765 7.915h-3.748l6.872-30.51h17.09l6.78 30.51h-13.763l-1.782-7.915Zm-.699-3.15-3.473-15.423h-1.323l-3.473 15.422h8.269ZM184.602.744h-16.244v30.51h12.881V20.45l1.728.166 4.759 10.64H201.6l-6.707-10.343-.533-.964c3.565-1.687 5.77-4.67 5.88-9.768.073-2.558-.698-5.19-2.591-6.952-2.906-2.71-7.234-2.607-11.074-2.515-.676.016-1.337.032-1.973.032Zm.147 17.535s-2.793-.185-3.491-.315V3.21c6.137 0 6.137 5.134 6.137 7.025 0 4.579-2.646 8.045-2.646 8.045Zm-28.152 12.975h-12.881V.745h12.881v30.51ZM31.367 9.92c0-8.508-7.405-9.175-14.994-9.175H0v30.51h12.9V22.71c1.23.26 2.83.408 4.502.408 6.91 0 13.965-2.373 13.965-13.198ZM16.373 20.208s-2.702-.149-3.473-.315V3.21c6.082 0 6.082 5.802 6.082 7.952 0 5.765-2.61 9.046-2.61 9.046Z" fill="#003154"/></g></g></symbol><symbol id="polair-logo-mob"><g fill="none"><path fill-rule="evenodd" clip-rule="evenodd" d="M34.535.002c-8.125 0-11.747 4.773-11.747 10.033 0 5.248 4.174 9.963 11.747 9.963 8.019 0 11.84-4.715 11.84-9.963 0-5.26-3.821-10.033-11.84-10.033Zm3.515 11.18c.141 3.406-.752 6.847-2.551 7.24-1.905-.255-3.928-3.87-4.14-9.372-.129-3.198.436-6.754 2.423-7.484 1.67.301 4.045 3.696 4.268 9.616ZM59.085.465h-8.242v19.07h13.804v-2.202l-5.562.012V.465Zm17.579 14.123h-6.197s-.952 4.251-1.129 4.947H66.94L71.337.465h10.935l4.34 19.07h-8.808l-1.14-4.947Zm-.447-1.97L73.995 2.98h-.847l-2.222 9.64h5.291ZM118.123.465h-10.394v19.07h8.243V12.78l1.105.105 3.045 6.65H129l-4.292-6.465-.341-.602c2.281-1.055 3.692-2.92 3.763-6.106.047-1.599-.447-3.244-1.658-4.344-1.86-1.695-4.629-1.63-7.086-1.573-.433.01-.856.02-1.263.02Zm.094 10.96s-1.787-.116-2.234-.197V2.006c3.928 0 3.928 3.21 3.928 4.391 0 2.861-1.694 5.028-1.694 5.028Zm-18.013 8.11h-8.243V.465h8.243v19.07ZM20.071 6.2c0-5.318-4.738-5.735-9.594-5.735H0v19.07h8.254v-5.341c.788.162 1.811.255 2.881.255 4.421 0 8.936-1.483 8.936-8.249Zm-9.594 6.43s-1.729-.093-2.223-.197V2.006c3.892 0 3.892 3.626 3.892 4.97 0 3.603-1.67 5.654-1.67 5.654Z" fill="#003154"/></g></symbol><symbol id="rada-logo"><g fill="none"><path fill-rule="evenodd" clip-rule="evenodd" d="M25.37 10H0v23.884h1.683l2.825-17.099 14.266-5.01 4.86 14.37-1.279 7.739h3.016V10Zm56.314 5.396h4.147c2.81 0 4.908.538 6.294 1.614 1.39 1.072 2.083 2.71 2.083 4.902 0 2.222-.663 3.831-1.99 4.839-1.327 1.003-3.455 1.507-6.387 1.507h-4.147V15.396ZM68.15 28.39l2.122 4.858c4.85 0 9.702.004 14.553.008h.011c6.07.004 12.143.01 18.218.007l2.113-4.629h12.392l2.02 4.629h7.333L115.754 10.44h-7.699l-7.323 14.1c.136-.783.2-1.61.2-2.476 0-2.29-.444-4.295-1.332-6.022-.888-1.727-2.157-3.053-3.81-3.987-1.065-.597-2.26-1.028-3.602-1.292-1.341-.264-3.132-.396-5.371-.396h-11.53v18.106L66.35 10.196H58.65L51.44 24.08a3.192 3.192 0 0 0-1.48-1.551c-.804-.411-1.985-.626-3.556-.646 2.088-.352 3.645-1.008 4.679-1.971 1.04-.964 1.556-2.231 1.556-3.816 0-1.062-.253-2.011-.76-2.838-.503-.827-1.225-1.467-2.152-1.922-.713-.348-1.542-.592-2.493-.744-.947-.152-2.338-.225-4.162-.225H30.62v22.88h6.294v-8.732h3.84c1.99 0 3.245.191 3.767.573.522.386.873 1.198 1.059 2.436l.434 3.038.02.173c.098.817.216 1.805.58 2.513h6.913l2.225-4.858H68.15Zm47.321-4.159h-8.182l4.293-8.771 3.889 8.771Zm-49.405-.25h-8.182l4.294-8.77 3.888 8.77Zm-29.152-3.85v-5.337l4.04-.005c2.015 0 3.347.191 4.006.573.658.386.99 1.066.99 2.035 0 1.008-.356 1.712-1.068 2.118-.712.411-2.02.617-3.928.617h-4.04Zm40.989 18.87c-.156.166-.24.42-.24.744 0 .244.06.577.23.773.078.097.259.244.585.244a.674.674 0 0 0 .479-.166c.283-.254.292-.68.292-.87 0-.23-.034-.524-.224-.735-.166-.18-.356-.215-.542-.215-.17.005-.395.024-.58.225Zm1.673-1.262c-.278.132-.473.176-.976.26h-.01a2 2 0 0 0-.463.121.96.96 0 0 0-.346.274 1.3 1.3 0 0 0-.244.622h.01c.229-.504.692-.592 1.024-.592.234 0 .517.039.766.274.186.171.376.489.376 1.022 0 .387-.107.744-.303.984-.19.234-.492.41-.975.41-.235 0-.547-.053-.82-.327-.366-.372-.42-.92-.42-1.282 0-.886.254-1.292.43-1.482.292-.314.678-.387.97-.44l.26-.05c.372-.07.506-.096.716-.186v.392h.005ZM6.27 38.938c.078.132.122.327.126.494v.005H4.918a.926.926 0 0 1 .185-.534.753.753 0 0 1 .59-.279.64.64 0 0 1 .577.313Zm.107 1.976c.224-.162.366-.357.439-.592l-.395-.083a.856.856 0 0 1-.166.289c-.093.107-.268.234-.561.234-.332 0-.576-.151-.708-.474a1.353 1.353 0 0 1-.087-.529h1.966v-.097c0-.436-.161-1.375-1.171-1.375-.854 0-1.259.71-1.259 1.433 0 .382.088.724.327.998.234.27.537.397.917.397a1.2 1.2 0 0 0 .698-.201Zm-4.07-2.236v-.332H.206v.332h.849v2.383h.405v-2.383h.849Zm7.25-.332.567.939.59-.94h.405l-.785 1.229.927 1.487h-.488l-.678-1.096-.708 1.096h-.405l.903-1.4-.815-1.316h.488Zm4.47 1.135v-1.136h-.405v2.716h.405v-1.248h1.254v1.248h.405v-2.715h-.405v1.135h-1.254Zm6.187.225c0-.89-.43-1.062-.757-1.062-.322 0-.756.171-.756 1.062 0 .89.43 1.061.756 1.061.327-.005.757-.171.757-1.061Zm-.757-1.414c.703 0 1.22.523 1.22 1.409 0 .89-.522 1.409-1.22 1.409-.702 0-1.22-.524-1.22-1.41 0-.885.523-1.408 1.22-1.408Zm5.626 2.769V38.34h-1.63l-.005.303c-.029 1.365-.087 1.634-.166 1.776a.54.54 0 0 1-.41.284h-.043v.352h.02c.185 0 .604-.04.785-.568.083-.24.127-.601.17-1.815h.874v2.388h.405Zm4.527-1.355c0-.89-.429-1.062-.756-1.062-.322 0-.756.171-.756 1.062 0 .89.43 1.061.756 1.061.327-.005.756-.171.756-1.061Zm-.75-1.414c.702 0 1.219.523 1.219 1.409 0 .89-.522 1.409-1.22 1.409-.702 0-1.22-.524-1.22-1.41-.004-.885.518-1.408 1.22-1.408Zm5.41.386v-.332h-1.64v2.715h.405v-2.383h1.235Zm2.8-.332v1.629c0 .12-.002.159-.007.234l-.007.137c.073-.167.15-.274.223-.378l.03-.042 1.015-1.346v-.234h.405v2.715h-.405v-1.605c0-.098.005-.26.02-.386-.02.048-.059.136-.244.376l-1.03 1.35v.26h-.404V38.34h.405v.005Zm4.694.748v-.748h-.405v.684c0 .309 0 .612.24.788.19.137.463.137.638.137.244 0 .396-.015.65-.044v1.145h.404V38.34h-.405v1.247c-.16.02-.4.04-.585.04-.186 0-.366 0-.464-.118-.08-.101-.076-.249-.074-.363l.001-.053Zm6.045.338a1.107 1.107 0 0 0-.127-.495.637.637 0 0 0-.57-.313.753.753 0 0 0-.59.28.926.926 0 0 0-.186.532h1.473v-.004Zm.42.89c-.073.235-.215.43-.44.592a1.2 1.2 0 0 1-.697.2c-.38 0-.683-.127-.917-.396-.24-.274-.327-.616-.327-.998 0-.724.405-1.433 1.259-1.433 1.01 0 1.17.94 1.17 1.375v.097h-1.966c-.005.181.025.372.088.529.132.323.376.474.708.474.292 0 .468-.127.56-.234a.857.857 0 0 0 .167-.29l.395.084Zm4.015-1.438c.068.102.127.259.147.41l.39-.063a1.315 1.315 0 0 0-.278-.621c-.19-.215-.44-.308-.737-.308-.434 0-.707.185-.893.44-.205.284-.283.611-.283.973 0 .46.142.896.405 1.14.156.142.4.265.742.265.292 0 .541-.093.732-.29.15-.16.268-.4.307-.66l-.38-.068a.914.914 0 0 1-.176.44.556.556 0 0 1-.474.225.597.597 0 0 1-.517-.274c-.034-.044-.175-.264-.175-.778 0-.22.029-.528.175-.768a.585.585 0 0 1 .522-.303c.264 0 .42.132.493.24Zm3.796.596c.356 0 .537-.073.654-.577l.013-.058c.03-.13.063-.275.148-.372.117-.137.288-.142.37-.142.04 0 .076.004.115.008l.012.002v.318c-.016-.004-.037-.002-.057-.001h-.026c-.058.005-.121.015-.17.079-.046.055-.07.179-.081.234l-.002.01-.04.191c-.058.299-.228.43-.409.46v.01c.258.02.361.196.424.367.048.133.084.252.114.353.033.115.06.206.091.268.05.098.098.113.2.113.035 0 .064 0 .098-.005v.323c-.059.01-.117.01-.176.01-.423 0-.48-.182-.578-.496l-.007-.023-.066-.21a1.566 1.566 0 0 0-.115-.314c-.107-.185-.263-.23-.483-.23h-.395v1.253h-.405v-2.715h.405v1.135h.366v.01Zm4.874-.836c.327 0 .756.171.756 1.062 0 .89-.429 1.056-.756 1.061-.327 0-.756-.171-.756-1.061 0-.89.434-1.062.756-1.062Zm1.225 1.057c0-.886-.518-1.41-1.22-1.41-.703 0-1.22.524-1.22 1.41 0 .885.517 1.409 1.22 1.409.698 0 1.22-.519 1.22-1.41Zm4.303-.27a1.107 1.107 0 0 0-.127-.493.637.637 0 0 0-.57-.314.753.753 0 0 0-.591.28.926.926 0 0 0-.185.532h1.473v-.004Zm.42.891c-.074.235-.215.43-.44.592a1.2 1.2 0 0 1-.697.2c-.38 0-.683-.127-.917-.396-.24-.274-.327-.616-.327-.998 0-.724.405-1.433 1.258-1.433 1.01 0 1.171.94 1.171 1.375v.097h-1.966c-.005.181.025.372.088.529.132.323.376.474.707.474.293 0 .469-.127.561-.234a.857.857 0 0 0 .166-.29l.396.084Zm6.723-1.678c.327 0 .756.171.756 1.062 0 .89-.43 1.056-.756 1.061-.322 0-.751-.171-.751-1.061 0-.89.429-1.062.75-1.062Zm1.224 1.057c0-.886-.517-1.41-1.22-1.41-.702 0-1.224.524-1.22 1.41 0 .885.518 1.409 1.22 1.409.698 0 1.22-.519 1.22-1.41Zm8.46-1.057c.328 0 .757.171.757 1.062 0 .89-.43 1.056-.756 1.061-.322 0-.752-.171-.752-1.061 0-.89.43-1.062.752-1.062Zm1.225 1.057c0-.886-.517-1.41-1.22-1.41-.702 0-1.224.524-1.22 1.41 0 .885.518 1.409 1.22 1.409.698 0 1.22-.519 1.22-1.41Zm2.957.288c0 .137.02.358.19.548.151.167.347.23.517.23a.614.614 0 0 0 .532-.318c.127-.21.166-.504.166-.748 0-.455-.112-.67-.161-.744a.596.596 0 0 0-.532-.303.637.637 0 0 0-.488.215.805.805 0 0 0-.224.558v.562Zm-.405 1.957v-3.6h.37v.508l.006-.005c.107-.254.36-.557.805-.557.336 0 .58.122.746.313.234.26.342.69.342 1.081 0 .362-.088.758-.288 1.023a.957.957 0 0 1-.8.406c-.43 0-.654-.23-.766-.48h-.015v1.311h-.4Zm5.362-.142c.156-.147.23-.318.288-.484l1.068-2.97h-.37l-.727 2.09-.703-2.09h-.468l.951 2.667-.034.088c-.083.25-.151.391-.254.474-.102.088-.205.093-.302.093-.108 0-.18-.01-.293-.039v.313c.107.04.234.054.341.054a.69.69 0 0 0 .503-.196Zm4.24-2.984c-.015.401-.064 1.062-.24 1.526a4.702 4.702 0 0 1-.17.382h1.244v-2.055h-.83l-.004.147Zm1.24-.47v2.383h.277v1.062h-.37v-.73h-1.801v.73h-.37v-1.062h.2c.092-.132.18-.294.253-.484.195-.5.22-1.033.234-1.654l.005-.245h1.571Zm3.751.294c.327 0 .756.171.756 1.062-.005.89-.434 1.056-.756 1.061-.322 0-.751-.171-.751-1.061 0-.89.429-1.062.751-1.062Zm1.22 1.057c0-.886-.517-1.41-1.22-1.41s-1.22.524-1.22 1.41c0 .885.517 1.409 1.22 1.409.698 0 1.22-.519 1.22-1.41Zm2.961 1.032h.849c.195 0 .342-.054.425-.132a.459.459 0 0 0 .127-.328.426.426 0 0 0-.166-.347c-.132-.103-.322-.113-.425-.113h-.81v.92Zm.005-1.252h.752c.126 0 .292-.01.409-.138a.451.451 0 0 0 .108-.308.313.313 0 0 0-.117-.259c-.113-.098-.239-.098-.361-.098h-.791v.803Zm.791-1.136c.219 0 .448.01.629.118a.572.572 0 0 1 .288.523.591.591 0 0 1-.181.455.713.713 0 0 1-.351.172v.01a.825.825 0 0 1 .503.215c.053.053.18.2.18.464a.75.75 0 0 1-.283.602c-.205.162-.439.166-.659.166h-1.332v-2.715h1.206v-.01Zm4.205 1.502c.151-.078.395-.132.82-.132h.341v.132c0 .191-.078.44-.214.612a.848.848 0 0 1-.644.303.651.651 0 0 1-.386-.102.436.436 0 0 1-.195-.362c0-.137.054-.333.278-.45Zm.503-1.55c-.591 0-1.03.156-1.147.738l.386.064c.063-.44.531-.475.756-.475.19 0 .424.01.561.196.098.127.107.308.107.45v.113h-.351c-.41 0-.839.005-1.166.23a.789.789 0 0 0-.366.685c0 .283.127.47.244.577.132.122.346.24.693.24.639 0 .873-.402.946-.558.005.132.02.308.049.504h.425a2.506 2.506 0 0 1-.069-.568v-1.042c0-.352-.005-.724-.297-.959-.239-.19-.591-.195-.771-.195Zm4.201.049v1.135h1.253v-1.136h.401v2.716h-.401v-1.248h-1.253v1.248h-.405v-2.715h.405Zm4.83 1.629V38.34h-.405v2.715h.405v-.26l1.029-1.35c.186-.24.225-.328.244-.376a3.967 3.967 0 0 0-.019.386v1.605h.405v-2.715h-.405v.234l-1.015 1.346-.03.042c-.074.103-.151.21-.224.378l.008-.137c.005-.075.007-.113.007-.234Zm6.177-.543a1.11 1.11 0 0 0-.127-.495.64.64 0 0 0-.576-.313.753.753 0 0 0-.59.28.922.922 0 0 0-.186.532h1.479v-.004Zm.419.89c-.073.235-.214.43-.439.592-.21.142-.434.2-.698.2-.38 0-.683-.127-.917-.396-.239-.274-.327-.616-.327-.998 0-.724.405-1.433 1.259-1.433 1.01 0 1.171.94 1.171 1.375v.097h-1.966a1.34 1.34 0 0 0 .088.529c.131.323.375.474.707.474.293 0 .468-.127.561-.234a.857.857 0 0 0 .166-.29l.395.084ZM3.635 33.884 5.83 20.596l2.933 8.45-.8 4.838H3.634Zm13.47-5.48-.907 5.48h4.206l1.161-7.035-4.46 1.555Zm-7.186 5.48.522-3.156 4.591-1.6-.785 4.756H9.919Z" fill="#8F9090"/></g></symbol><symbol id="radax-logo"><g fill="none"><g clip-path="url(#a)"><path fill-rule="evenodd" clip-rule="evenodd" d="M8.643 14.245v11.399h5.365v-11.4H8.643ZM22.693 37H14.05l-2.937-8.154H8.686L8.643 37H0V11h18.649c1.235 0 2.214.384 2.938 1.11.724.726 1.064 1.708 1.064 2.946v9.734c0 1.067-.298 1.921-.809 2.604-.553.683-1.277 1.153-2.171 1.324L22.694 37Zm10.39-2.86h4.3v-9.265h-4.3v9.265ZM45.345 37H29.123c-1.235 0-2.214-.384-2.938-1.11-.724-.726-1.107-1.708-1.107-2.946v-7.727c0-.94.298-1.75.894-2.348.596-.598 1.363-.897 2.342-.897h9.069V19.07H29.08v-2.86h13.072c.936 0 1.703.299 2.299.896.596.598.894 1.366.894 2.348V37Zm10.772-2.86V19.069h4.3v15.07h-4.3ZM52.115 37h16.307V11H60.46v5.209h-9.154c-.98 0-1.746.298-2.342.896-.596.598-.894 1.409-.894 2.348v13.491c0 1.238.383 2.22 1.107 2.946S50.88 37 52.115 37Zm54.158-11.527L112.446 37h-7.961l-3.194-6.062L96.863 37h-3.576l6.429-8.923-6.344-11.868h7.962l3.406 6.404 4.598-6.404H113l-6.727 9.264Zm-22.95 8.667h-4.3v-9.265h4.3v9.265ZM75.064 37h16.223V19.453c0-.982-.298-1.75-.895-2.348-.596-.598-1.362-.896-2.299-.896h-13.07v2.86h8.302v2.903h-9.07c-.979 0-1.745.299-2.341.897-.596.597-.894 1.409-.894 2.348v7.727c0 1.238.383 2.22 1.107 2.946S73.829 37 75.064 37Z" fill="#8F9090"/></g></g></symbol><symbol id="rhombus"><g fill="none"><path fill-rule="evenodd" clip-rule="evenodd" d="m40 0 39.5 40L40 80 .5 40 40 0ZM11.99 40 40 68.365 68.01 40 40 11.635 11.99 40Z" fill="#174463"/></g></symbol><symbol id="search"><g fill="none"><path d="M7.784.25C3.632.25.25 3.632.25 7.784c0 4.153 3.382 7.535 7.534 7.535a7.498 7.498 0 0 0 4.785-1.717h.008l3.926 3.934a.731.731 0 0 0 1.033 0 .722.722 0 0 0 0-1.025l-3.941-3.934v-.008a7.504 7.504 0 0 0 1.724-4.785c0-4.152-3.382-7.534-7.535-7.534Zm0 1.458a6.065 6.065 0 0 1 6.076 6.076 6.065 6.065 0 0 1-6.076 6.076 6.065 6.065 0 0 1-6.076-6.076 6.065 6.065 0 0 1 6.076-6.076Z" fill="#1E1E1E"/><path fill-rule="evenodd" clip-rule="evenodd" d="M.188 7.784c0-4.187 3.41-7.596 7.596-7.596h.074c4.153.04 7.523 3.434 7.523 7.596a7.565 7.565 0 0 1-1.706 4.785l3.906 3.898c.309.309.309.805 0 1.114a.794.794 0 0 1-1.122 0l-3.89-3.898a7.56 7.56 0 0 1-4.785 1.698c-4.187 0-7.596-3.41-7.596-7.597ZM7.75.313C3.648.33.312 3.678.312 7.784c0 4.118 3.354 7.472 7.472 7.472 1.8 0 3.454-.637 4.746-1.702l.017-.014h.056l3.945 3.952c.26.26.684.26.944 0a.66.66 0 0 0 0-.937l-3.974-3.966.014-.027.001-.005a.063.063 0 0 1 .013-.027 7.442 7.442 0 0 0 1.71-4.746c0-4.118-3.354-7.471-7.472-7.471h-.033Zm.033 1.458a6.003 6.003 0 0 0-6.013 6.013 6.003 6.003 0 0 0 6.013 6.014 6.003 6.003 0 0 0 6.014-6.014 6.003 6.003 0 0 0-6.014-6.013ZM1.646 7.784a6.128 6.128 0 0 1 6.138-6.138 6.128 6.128 0 0 1 6.139 6.138 6.128 6.128 0 0 1-6.139 6.139 6.128 6.128 0 0 1-6.138-6.139Z" fill="#1E1E1E"/></g></symbol><symbol id="temperarute"><g fill="none"><path fill-rule="evenodd" clip-rule="evenodd" d="M10.856.029a12.081 12.081 0 0 0-8.922 5.418C-1.086 10.046-.518 16.3 3.28 20.24c.34.354.469.423.69.37.177-.044 1.967-1.838 1.992-1.998.033-.217-.05-.381-.363-.713-.317-.335-.867-1.046-.867-1.119 0-.022.2-.158.445-.302.244-.143.466-.302.492-.351a.499.499 0 0 0-.089-.57c-.194-.194-.374-.181-.778.056-.63.369-.556.368-.727.006-.358-.758-.681-1.969-.737-2.763l-.027-.384.574-.016c.562-.015.576-.018.687-.147a.454.454 0 0 0 .113-.315.454.454 0 0 0-.113-.314c-.11-.129-.125-.132-.687-.147l-.574-.016.027-.384c.056-.8.368-1.966.727-2.718l.174-.364.446.258c.528.306.69.328.895.122a.499.499 0 0 0 .09-.569c-.027-.05-.249-.208-.493-.352-.245-.144-.445-.274-.445-.289 0-.107.64-.889 1.126-1.375.487-.486 1.268-1.126 1.376-1.126.015 0 .145.2.289.444.144.245.302.467.351.493a.5.5 0 0 0 .57-.089c.205-.206.184-.367-.122-.895l-.259-.446.365-.174c.751-.359 1.917-.671 2.717-.728l.384-.027.016.574c.015.563.019.577.148.688.178.153.45.153.628 0 .129-.111.132-.125.147-.688l.016-.574.385.027c.8.057 1.965.369 2.717.728l.364.174-.258.446c-.306.528-.328.689-.122.895.146.146.39.185.57.09.049-.027.207-.25.35-.494.145-.244.275-.444.29-.444.107 0 .889.64 1.375 1.126.486.486 1.127 1.268 1.127 1.375 0 .015-.2.145-.445.29-.245.143-.466.302-.493.351a.499.499 0 0 0 .089.57c.205.204.367.183.895-.12l.446-.257.174.362c.358.745.671 1.915.728 2.716l.027.384-.574.016c-.563.015-.577.018-.688.147a.487.487 0 0 0 0 .629c.111.129.125.132.688.147l.574.016-.027.384c-.03.412-.204 1.344-.263 1.404-.02.02-.182 0-.36-.043-.434-.106-1.508-.107-1.973-.002-1.013.228-1.867.704-2.555 1.424-.527.552-.84 1.045-1.081 1.707-.529 1.449-.384 2.954.412 4.285.28.47.934 1.163 1.4 1.484 2.485 1.718 5.895.845 7.23-1.851.146-.293.31-.72.381-.986.11-.416.124-.555.123-1.22 0-.66-.016-.808-.125-1.22a6.158 6.158 0 0 0-.385-.995l-.26-.525.145-.414c.985-2.79.837-6.098-.395-8.829a12.225 12.225 0 0 0-5.093-5.569C16.669.823 15.146.31 13.672.092c-.574-.085-2.24-.122-2.816-.063Zm2.769 1.005a11.045 11.045 0 0 1 6.197 3.144c.885.884 1.53 1.775 2.089 2.885a11.19 11.19 0 0 1 1.06 3.36c.117.775.119 2.364.002 3.12-.09.586-.215 1.155-.365 1.658l-.095.32-.208-.192c-.189-.174-.843-.628-.96-.668-.031-.01-.014-.157.047-.402.466-1.87.318-3.982-.407-5.808-1.045-2.63-3.246-4.72-5.902-5.604a9.59 9.59 0 0 0-7.325.485A9.674 9.674 0 0 0 2.85 8.943a9.654 9.654 0 0 0 1.667 9.146l.32.392-.487.488c-.267.269-.502.483-.522.476-.084-.028-.73-.852-1.075-1.371-.873-1.313-1.472-2.892-1.714-4.514-.115-.774-.114-2.412.002-3.161.66-4.25 3.542-7.628 7.646-8.967.699-.228 1.38-.362 2.474-.487.35-.04 2.018.02 2.464.09ZM11.693 5.77l-.13.112-.452 3.373-.453 3.373-.3.305c-.479.487-.699 1.004-.699 1.643 0 1.107.764 2.06 1.845 2.302.342.076.974.036 1.308-.084.909-.328 1.54-1.237 1.54-2.218 0-.639-.22-1.156-.699-1.643l-.3-.305-.452-3.373-.453-3.373-.13-.112a.453.453 0 0 0-.312-.112.453.453 0 0 0-.313.112Zm.492 5.227c.083.639.151 1.183.15 1.209 0 .026-.142.046-.33.046-.186 0-.328-.02-.329-.046-.003-.144.306-2.37.33-2.37.015 0 .096.522.18 1.161Zm.451 2.332c.618.302.91 1 .71 1.691-.104.356-.495.767-.844.885-.55.187-1.08.064-1.49-.344-.291-.291-.415-.584-.414-.982.001-1.043 1.094-1.713 2.038-1.25Zm7.422 1.857c2.064.526 3.364 2.596 2.935 4.673-.172.834-.54 1.494-1.17 2.095-1.556 1.487-3.941 1.484-5.517-.007a4.105 4.105 0 0 1-1.114-1.903c-.14-.522-.142-1.443-.005-1.953.429-1.587 1.71-2.751 3.297-2.994.42-.064 1.129-.024 1.574.09Zm-2.217.866c-.18.078-.25.198-.25.422 0 .137.099.317.519.945.48.718.517.791.504.973-.014.195-.016.197-.21.21-.183.014-.256-.024-.974-.504-.648-.433-.805-.518-.954-.518-.226 0-.365.097-.433.3-.095.288.009.429.601.82.288.19.513.361.502.38-.011.018-.243.18-.515.358-.57.374-.679.522-.588.797.03.09.108.199.174.242.244.16.379.112 1.183-.424.707-.471.768-.502.989-.502h.234v.187c0 .159-.076.3-.516.965-.44.663-.516.805-.516.965 0 .325.317.538.616.415.104-.044.244-.209.5-.593.195-.294.37-.517.388-.497.018.02.181.26.363.533.366.55.504.653.774.576.195-.056.379-.32.344-.496-.014-.07-.248-.461-.52-.868-.454-.681-.494-.759-.494-.964v-.223h.223c.206 0 .283.04.964.494.407.272.798.506.868.52.175.035.44-.149.496-.345.077-.27-.025-.407-.575-.773a16.95 16.95 0 0 1-.534-.364c-.02-.018.203-.192.497-.387.385-.257.55-.396.593-.5a.442.442 0 0 0-.415-.617c-.16 0-.301.076-.965.517-.664.44-.806.516-.965.516h-.187v-.235c0-.22.031-.281.502-.988.536-.804.584-.94.424-1.184a.532.532 0 0 0-.242-.173c-.275-.09-.423.018-.797.588-.179.272-.34.503-.358.515-.018.011-.189-.215-.379-.502-.256-.388-.384-.539-.497-.586-.183-.076-.187-.076-.374.005Z" fill="#003154"/></g></symbol><symbol id="thermometer"><g fill="none"><path fill-rule="evenodd" clip-rule="evenodd" d="M12.835.07a2.628 2.628 0 0 0-1.933 1.986c-.054.256-.066 1.386-.066 6.562l-.001 6.253-.279.19a4.79 4.79 0 0 0-1.912 2.706c-.16.604-.182 1.641-.047 2.271.404 1.883 1.78 3.357 3.576 3.832.408.109.567.125 1.22.13.58.003.836-.015 1.122-.083.998-.234 1.72-.645 2.433-1.384 1.618-1.678 1.889-4.29.638-6.16a5.13 5.13 0 0 0-1.229-1.283L16 14.825l-.013-6.417-.012-6.418-.106-.28C15.404.476 14.09-.234 12.835.07Zm1.05.938c.491.146.906.526 1.079.989.094.251.095.338.098 6.695.002 4.863.016 6.48.059 6.602.044.128.13.206.408.372.423.254 1.13.948 1.354 1.331a3.77 3.77 0 0 1 .535 2.008 4.104 4.104 0 0 1-1.086 2.824c-.711.772-1.607 1.188-2.68 1.245-2.53.135-4.576-2.135-4.176-4.632a4.52 4.52 0 0 1 .513-1.413c.268-.45.778-.977 1.254-1.293.215-.144.423-.305.461-.36.06-.087.07-.92.07-6.54 0-6.13.004-6.452.086-6.717.274-.88 1.161-1.367 2.025-1.11Zm-9.692.46a4.844 4.844 0 0 0-2.82 1.498c-1.83 1.924-1.83 4.855 0 6.779 1.031 1.085 2.438 1.643 3.891 1.543 2.134-.148 3.92-1.633 4.478-3.726.107-.4.122-.547.122-1.207 0-.659-.015-.806-.122-1.206-.574-2.152-2.42-3.642-4.61-3.722a5.1 5.1 0 0 0-.939.042Zm1.713.995a5.17 5.17 0 0 1 1.3.588 4.173 4.173 0 0 1 1.618 2.298c.138.512.15 1.452.025 1.922-.333 1.252-1.109 2.19-2.246 2.718-.614.285-.947.354-1.682.35-.543-.004-.693-.022-1.047-.129-1.17-.352-2.04-1.086-2.542-2.146-.277-.583-.368-1.008-.368-1.709 0-.478.022-.69.101-.985a4.056 4.056 0 0 1 3.307-2.984c.349-.055 1.177-.014 1.534.077Zm11.302-.049c-.268.148-.31.506-.087.73l.137.137h1.086c1.197 0 1.301-.02 1.407-.276a.471.471 0 0 0-.121-.528c-.117-.11-.133-.112-1.206-.123-.897-.009-1.11.002-1.216.06Zm-13.492.935c-.18.078-.25.198-.25.423 0 .136.099.316.518.944.48.718.518.791.505.973-.014.193-.018.197-.202.21-.17.013-.262-.034-.964-.496-.427-.28-.827-.523-.888-.54-.315-.082-.625.278-.518.602.042.126.153.225.554.496.276.186.52.354.542.374.023.02-.203.198-.502.396-.44.291-.553.39-.594.516-.113.342.21.688.55.59.078-.022.46-.253.85-.514.664-.445.725-.475.945-.475h.236v.189c0 .162-.073.298-.516.961-.431.645-.516.802-.516.951 0 .338.27.538.585.434.14-.046.225-.14.502-.556.183-.275.347-.516.365-.536.017-.02.196.207.396.504.315.468.387.546.54.592.236.07.454-.036.552-.27.095-.228.064-.3-.495-1.136-.426-.637-.474-.73-.474-.92v-.213h.223c.205 0 .283.04.95.485.4.267.779.498.841.514.164.042.41-.078.494-.242.163-.315.062-.47-.58-.895-.286-.19-.52-.349-.52-.355 0-.006.234-.165.52-.354.642-.424.743-.58.58-.896-.085-.164-.33-.283-.494-.24-.062.015-.458.257-.879.537-.648.43-.794.507-.95.507h-.185v-.235c0-.221.03-.281.474-.944.559-.836.59-.908.495-1.136-.098-.233-.316-.34-.55-.27-.15.044-.224.126-.54.592-.201.297-.38.524-.398.504-.018-.02-.181-.26-.364-.535-.257-.386-.366-.511-.483-.552-.182-.063-.171-.064-.355.016Zm13.53.942c-.192.1-.259.207-.26.413-.002.138.03.212.135.317l.137.137h.64c.73 0 .835-.037.921-.326a.439.439 0 0 0-.264-.546c-.226-.094-1.125-.09-1.308.005Zm-4.08 1.437c-.222.129-.219.046-.219 5.345 0 3.943-.012 4.981-.058 4.994-.741.197-1.174.427-1.608.853-.34.333-.59.738-.763 1.236-.108.31-.124.43-.123.92 0 .482.019.617.126.942a3.097 3.097 0 0 0 2.692 2.113c1.197.1 2.413-.598 2.95-1.694.226-.457.308-.816.31-1.343.002-.88-.267-1.528-.896-2.155-.49-.49-.905-.719-1.562-.864l-.13-.029V5.964l-.12-.145c-.101-.12-.156-.144-.317-.143a.727.727 0 0 0-.282.052Zm3.94.56c-.176.209-.167.452.022.634l.143.137.995.015c1.16.017 1.318-.013 1.46-.276.106-.199.077-.374-.09-.54l-.113-.114h-2.296l-.122.145Zm.015 1.87c-.246.247-.157.632.176.758.184.07 1.074.055 1.258-.022a.439.439 0 0 0 .264-.546c-.086-.289-.192-.326-.922-.326h-.639l-.137.137Zm0 1.878c-.156.157-.187.428-.069.597.133.19.282.21 1.4.196 1.041-.014 1.061-.016 1.178-.126a.572.572 0 0 0 .148-.244c.038-.173-.087-.437-.24-.506-.077-.035-.49-.054-1.199-.054h-1.08l-.138.137Zm-3.118 7.006c.322.083.643.275.916.549 1.22 1.223.546 3.288-1.17 3.583-.633.108-1.338-.125-1.812-.599-.792-.792-.83-2.091-.084-2.89.597-.637 1.324-.854 2.15-.643Z" fill="#003154"/></g></symbol></svg>